<svg width="57" height="51" viewBox="0 0 57 51" fill="none" xmlns="http://www.w3.org/2000/svg">
<path d="M28.4343 1.08877C14.4033 1.06888 3.60938 12.5307 3.60938 26.5333C3.60938 31.4784 7.60524 35.4856 12.5361 35.4856H44.3098C49.2407 35.4856 53.2365 31.4784 53.2365 26.5333C53.2337 12.5307 42.4625 1.10867 28.4343 1.08877Z" fill="#C11D33"/>
<path d="M12.3145 48.1325C12.2889 47.9762 12.2036 47.8966 12.0672 47.8966C12.0303 47.8966 12.0019 47.9023 11.9848 47.9108C11.7631 47.9648 11.6239 47.9932 11.5699 47.9932C11.459 47.9932 11.3709 47.9534 11.3084 47.8738C11.2431 47.7943 11.2118 47.6948 11.2118 47.5754L11.2431 39.7116C11.2431 39.5468 11.1663 39.4615 11.01 39.4615H10.9418L9.06039 39.7571C8.88418 39.7826 8.79608 39.885 8.79608 40.0612L8.76482 47.6607C8.76198 48.3882 8.94955 48.9396 9.32469 49.3147C9.69984 49.6899 10.2341 49.8775 10.9247 49.8803C11.4789 49.8831 11.9479 49.7638 12.3372 49.5279C12.4566 49.4455 12.5191 49.3488 12.5191 49.238V49.1556L12.3145 48.1325ZM7.36939 47.4618C7.31539 47.3339 7.23298 47.2685 7.12214 47.2685C7.10224 47.2685 7.05677 47.277 6.98288 47.2969C6.59637 47.4618 6.25817 47.5783 5.97112 47.6522C5.6784 47.7261 5.3743 47.763 5.07305 47.7602C4.24318 47.7573 3.61794 47.5811 3.19448 47.2344C2.77102 46.8877 2.54082 46.2908 2.49819 45.4411L5.85744 45.4695C5.94839 45.4695 6.02228 45.4439 6.07912 45.3956C6.13596 45.3473 6.16154 45.2734 6.16438 45.1825L6.17006 43.9235C6.17006 43.7217 6.07059 43.6194 5.86597 43.6194L2.49535 43.6051V43.2584C2.49819 42.6502 2.65166 42.2012 2.95575 41.9142C3.25985 41.6243 3.68899 41.4822 4.24318 41.485L4.6297 41.4879C5.0361 41.4907 5.34872 41.5049 5.5704 41.5333L6.95162 41.7038C7.11645 41.7323 7.22445 41.6584 7.26992 41.485L7.55128 40.1464C7.57118 40.0555 7.55981 39.9787 7.51718 39.9191C7.47739 39.8594 7.41486 39.8196 7.33245 39.7997L6.30932 39.6292C6.07912 39.5922 5.76082 39.5524 5.35725 39.507C4.95084 39.4643 4.62117 39.4416 4.36255 39.4416L3.78278 39.4388C3.06375 39.4359 2.41861 39.5894 1.84737 39.8992C1.27613 40.2118 0.827088 40.6495 0.500257 41.2207C0.176268 41.7919 0.0114312 42.4484 0.00858918 43.1959L6.31546e-05 44.6794C-0.00562086 46.3562 0.372366 47.6351 1.13687 48.519C1.90137 49.4028 3.05806 49.8462 4.60696 49.8547C5.7665 49.8604 6.79531 49.6103 7.69338 49.1073C7.79569 49.0533 7.84685 48.9737 7.84685 48.8742C7.84685 48.8458 7.83832 48.806 7.81843 48.7492L7.36939 47.4618ZM26.1949 39.7741C25.6321 39.6064 25.0296 39.5212 24.3845 39.5183C23.5546 39.5155 22.9038 39.7542 22.432 40.2374C21.9603 40.7177 21.7215 41.3656 21.7187 42.1756L21.7159 42.798L21.0395 42.7952C20.9485 42.7952 20.8746 42.8208 20.8263 42.8691C20.7751 42.9202 20.7496 42.9913 20.7496 43.0822L20.7439 44.3412C20.7439 44.526 20.8405 44.6169 21.0338 44.6197L21.7102 44.6226L21.6903 49.4171C21.6903 49.6103 21.7812 49.7069 21.966 49.7098L23.7905 49.7183C23.8815 49.7183 23.9554 49.6927 24.0065 49.6444C24.0577 49.5933 24.0832 49.5222 24.0832 49.4313L24.1031 44.6368L25.6776 44.6425C25.8623 44.6425 25.9533 44.5515 25.9561 44.3668L25.9618 43.1078C25.9618 42.9145 25.8709 42.8179 25.6861 42.8151L24.1117 42.8094L24.1145 42.3262C24.1145 42.042 24.1912 41.8147 24.339 41.6498C24.4868 41.485 24.6858 41.4026 24.933 41.4026C25.0978 41.4026 25.2314 41.4111 25.3337 41.4253C25.436 41.4395 25.5582 41.4736 25.706 41.5305C25.7799 41.5504 25.8254 41.5589 25.8453 41.5589C25.9561 41.5589 26.03 41.4907 26.067 41.3514L26.391 40.1237C26.4336 39.9446 26.3711 39.8281 26.1949 39.7741ZM48.9707 42.9089L47.2286 42.9003L47.2342 41.5589C47.2342 41.3742 47.1433 41.2832 46.9586 41.2804L45.853 41.2747C45.6882 41.2747 45.5717 41.3372 45.5063 41.468L44.7958 42.889L44.091 42.8861C44 42.8861 43.9262 42.9117 43.8778 42.96C43.8267 43.0112 43.8011 43.0822 43.8011 43.1732L43.7954 44.4322C43.7954 44.6169 43.892 44.7078 44.0853 44.7107L44.7901 44.7135L44.7759 47.7943C44.7731 48.4565 44.9891 48.9936 45.4267 49.4C45.8616 49.8064 46.4356 50.011 47.1461 50.0139C47.9106 50.0167 48.5416 49.8945 49.0418 49.6501C49.1071 49.6217 49.1384 49.5592 49.1384 49.4568C49.1384 49.4199 49.1356 49.383 49.1242 49.346L48.9366 48.158C48.9082 48.0103 48.8258 47.9364 48.6894 47.9364C48.6524 47.9364 48.6155 47.9392 48.5785 47.9506C48.2375 48.0415 47.9476 48.087 47.706 48.0842C47.5582 48.0842 47.4389 48.0302 47.3479 47.925C47.257 47.8198 47.2115 47.6777 47.2115 47.5044L47.2229 44.7277L48.965 44.7334C49.1583 44.7334 49.2549 44.6425 49.2578 44.4577L49.2634 43.1987C49.2634 43.1078 49.2379 43.0367 49.1896 42.9856C49.1356 42.9344 49.0645 42.9089 48.9707 42.9089ZM43.0224 47.9563C42.994 47.8284 42.9826 47.6749 42.9826 47.5015L42.9911 45.3871C42.994 44.8528 42.8803 44.381 42.6529 43.9689C42.4256 43.5568 42.1044 43.2385 41.6952 43.0112C41.2859 42.7838 40.8198 42.6701 40.2941 42.6673C39.7683 42.6644 39.2823 42.7866 38.8333 43.0339C38.3842 43.2812 38.0546 43.6194 37.8414 44.0513L37.6254 42.8492C37.5998 42.6929 37.5117 42.6133 37.364 42.6133H37.31L35.5394 42.8406C35.3745 42.8691 35.2893 42.9543 35.2893 43.1021V43.1703L35.5962 45.5207L35.5792 49.4739C35.5792 49.5648 35.6048 49.6387 35.6531 49.687C35.7042 49.7382 35.7753 49.7638 35.8662 49.7638L37.7874 49.7723C37.8784 49.7723 37.9522 49.7467 38.0034 49.6984C38.0546 49.6473 38.0801 49.5762 38.0801 49.4853L38.0972 45.6713C38.4865 45.0659 38.9811 44.7618 39.5807 44.7647C39.8564 44.7647 40.0781 44.8784 40.2429 45.1C40.4077 45.3217 40.4902 45.5974 40.4873 45.9299L40.4788 47.6721C40.4788 47.9108 40.4987 48.1154 40.5442 48.2803L40.979 49.7467C41.0245 49.886 41.1126 49.9542 41.2405 49.9542H41.3087L43.0366 49.7268C43.2014 49.7013 43.2867 49.6217 43.2867 49.4938L43.2725 49.4114L43.0224 47.9563ZM20.0249 44.9835C20.0277 44.4691 19.8856 44.0286 19.6014 43.6677C19.3172 43.3067 18.9364 43.0339 18.4589 42.8463C17.9815 42.6588 17.4614 42.565 16.8986 42.5621C16.0972 42.5593 15.3952 42.7099 14.7899 43.0168C14.1845 43.3238 13.7184 43.7586 13.3888 44.3242C13.0591 44.8897 12.8943 45.5491 12.8886 46.3051C12.8857 47.0525 13.0534 47.6948 13.3916 48.2348C13.7298 48.7748 14.2016 49.1868 14.8098 49.4711C15.418 49.7553 16.1057 49.8974 16.8816 49.9002C17.4358 49.903 17.9076 49.8661 18.2998 49.7894C18.7005 49.7098 19.0898 49.579 19.4565 49.4C19.5474 49.3631 19.5957 49.2892 19.5957 49.1783L19.5815 49.0675L19.3655 47.8653C19.3399 47.709 19.2604 47.6294 19.1325 47.6294C19.104 47.6294 19.0643 47.638 19.0074 47.6579C18.584 47.8028 18.2344 47.9051 17.9616 47.9648C17.6887 48.0245 17.3704 48.0529 17.001 48.05C16.4951 48.0472 16.083 47.9307 15.7647 47.7005C15.4464 47.4703 15.2446 47.1349 15.1537 46.7029C15.7334 46.9275 16.3729 47.0383 17.072 47.0411C17.9388 47.044 18.6465 46.8678 19.195 46.5097C19.7463 46.1573 20.022 45.6486 20.0249 44.9835ZM33.9166 47.709L33.9365 43.1334C33.9365 43.0424 33.9109 42.9685 33.8626 42.9202C33.8114 42.8691 33.7404 42.8435 33.6494 42.8435L32.2682 42.8378C32.092 42.8378 31.9869 42.9145 31.9499 43.0708L31.768 43.6932C31.1797 42.9827 30.4124 42.6247 29.4632 42.619C28.8266 42.6161 28.2752 42.7753 27.8091 43.0964C27.343 43.4176 26.9878 43.8609 26.7462 44.4265C26.5046 44.992 26.3824 45.6287 26.3796 46.3392C26.3767 47.0497 26.5132 47.6777 26.786 48.2263C27.0588 48.7748 27.451 49.2011 27.9541 49.5023C28.4599 49.8036 29.0426 49.957 29.7076 49.9599C30.5744 49.9627 31.2934 49.6444 31.8675 49.0021L32.0863 49.6814C32.1318 49.8206 32.2228 49.8888 32.362 49.8888H32.416L34.0189 49.687C34.1837 49.6615 34.269 49.5819 34.269 49.454L34.2548 49.3716L33.9166 47.709ZM56.1638 48.0103C56.1383 47.8625 56.0644 47.7886 55.945 47.7886L55.82 47.817C55.405 47.9619 55.0583 48.0643 54.7826 48.1239C54.507 48.1836 54.183 48.212 53.8135 48.2092C53.3076 48.2064 52.8955 48.0898 52.5772 47.8596C52.2589 47.6266 52.0515 47.2912 51.952 46.8479C52.5318 47.0724 53.1769 47.1861 53.8846 47.1889C54.74 47.1918 55.4477 47.0156 56.0018 46.6575C56.556 46.2994 56.8346 45.7963 56.8374 45.1398C56.8402 44.6226 56.6981 44.1821 56.4139 43.8183C56.1297 43.4545 55.7489 43.1788 55.2715 42.997C54.794 42.8151 54.2739 42.7241 53.7112 42.7213C52.9097 42.7184 52.2078 42.8691 51.6024 43.176C50.9971 43.4829 50.531 43.9149 50.2013 44.4748C49.8716 45.0347 49.7068 45.694 49.7011 46.45C49.6983 47.1974 49.866 47.8397 50.2042 48.3797C50.5423 48.9197 51.0141 49.3318 51.6166 49.616C52.2191 49.9002 52.9126 50.0423 53.6941 50.0451C54.2654 50.048 54.7457 50.0139 55.1379 49.94C55.5301 49.8689 55.9109 49.7382 56.2662 49.5563C56.3486 49.5108 56.3912 49.4313 56.3912 49.3233L56.377 49.2124L56.1638 48.0103ZM53.7055 44.4748C54.0636 44.4776 54.3421 44.5345 54.5411 44.651C54.7372 44.7675 54.8366 44.9409 54.8366 45.1711C54.8338 45.5946 54.4899 45.8049 53.7964 45.802C53.2025 45.7992 52.6113 45.7082 52.0429 45.532C52.1765 45.2166 52.401 44.9494 52.6881 44.7618C52.9808 44.5686 53.319 44.4748 53.7055 44.4748ZM15.2418 45.3928C15.3668 45.0773 15.5885 44.8073 15.8727 44.6226C16.1626 44.4293 16.5036 44.3355 16.8901 44.3355C17.2482 44.3384 17.5267 44.3952 17.7257 44.5117C17.9246 44.6283 18.0212 44.8016 18.0212 45.0318C18.0184 45.4553 17.6717 45.6656 16.9811 45.6628C16.3729 45.6599 15.7931 45.5718 15.2418 45.3928ZM30.0031 48.0103C29.5712 48.0074 29.2301 47.8539 28.9829 47.5442C28.7356 47.2344 28.6134 46.8365 28.6134 46.3477C28.6162 45.8589 28.7441 45.4667 28.9971 45.1683C29.25 44.8698 29.5911 44.7221 30.0145 44.7221C30.5772 44.7249 31.0547 44.921 31.4497 45.3075L31.4554 47.4646C31.032 47.8312 30.546 48.0131 30.0031 48.0103Z" fill="#C11D33"/>
<path d="M19.7123 2.50968C21.1588 1.6855 24.6517 2.35337 25.2229 8.15107L25.2996 8.85305C25.2996 8.85305 27.4823 7.33541 29.9321 7.84129C29.8923 5.58474 29.665 2.54947 31.0803 0.835739C32.4956 -0.877992 35.0989 0.642483 35.8662 4.18363C36.5938 6.63628 37.435 9.12588 38.9669 9.8648C39.504 8.77631 40.8795 8.03455 42.221 8.27043C42.6416 7.64803 43.1389 7.25868 43.5596 7.49172C43.9802 7.72477 44.631 8.38696 43.8665 10.2172C43.9802 11.5416 44.2104 13.1757 42.1442 12.7864C41.8373 12.2407 41.6838 11.9309 41.6838 11.9309C41.6838 11.9309 40.7318 12.0048 40.6266 14.1903C40.5243 16.373 40.493 18.7347 39.5523 20.7127C38.6088 22.6908 37.5658 24.2539 34.8204 25.169C32.8338 25.6493 29.1051 25.5641 26.0926 19.8772C24.7199 19.772 23.8587 19.1894 23.512 18.6892C23.3074 18.4391 21.9972 18.7091 21.5652 20.1046C21.1361 21.5 20.8491 22.8329 21.5255 23.6031C21.5255 23.6031 20.707 24.6859 20.4199 25.0809C20.1329 25.476 18.0014 28.3293 15.256 26.1012C13.5138 24.5608 14.4375 21.7075 15.7477 20.6445C13.7611 20.8946 12.6129 20.7497 11.6097 19.1866C11.0157 18.0612 10.6065 15.3328 13.9856 13.855C16.4042 12.6898 18.8824 12.0844 18.1037 6.85796C17.9616 5.44264 18.3936 3.26281 19.7123 2.50968Z" fill="#0B0A0A"/>
<path d="M25.8282 27.9372C26.462 27.4569 27.4454 25.459 27.181 24.2512C26.3427 24.8764 23.1056 25.1265 21.4231 23.7112C21.4231 23.7112 19.2717 26.8345 21.9148 28.23C22.5969 28.4801 23.836 28.9746 25.8282 27.9372Z" fill="black"/>
<path d="M35.1074 25.2287C35.1074 25.2287 38.4667 25.2486 40.763 21.3749C43.0565 17.5013 41.8288 14.6479 41.8288 13.9601C41.8288 13.2724 42.1471 12.7835 42.1471 12.7835L41.7492 11.8571C41.7492 11.8571 40.7659 11.9111 40.6323 14.1847C40.4788 16.4384 40.6834 18.999 38.8191 22.0826C38.1597 23.1455 37.3015 24.0834 35.1074 25.2287Z" fill="white"/>
<path d="M44.0199 11.0869C44.0199 11.0869 46.6203 12.0248 45.7819 14.773C45.3102 16.356 43.3435 17.0011 42.093 16.5635C42.0106 14.8355 41.6411 13.3349 42.1754 12.7097C42.9342 12.9001 44.2671 12.7751 44.0199 11.0869Z" fill="black"/>
<path d="M42.0931 16.5663C42.0931 16.5663 45.6371 17.4615 44.7759 20.6076C44.4264 22.1707 42.562 23.3161 40.4135 22.0855C41.4394 20.8776 42.1982 17.9816 42.0931 16.5663Z" fill="black"/>
<path d="M40.4561 22.0002C40.4561 22.0002 42.7098 24.7485 39.7797 26.3741C38.2848 27.1045 36.7075 26.6441 35.744 25.2089C36.7075 24.8764 39.575 23.6884 40.4561 22.0002Z" fill="black"/>
<path d="M37.2588 29.2274C37.2588 29.2274 37.6879 28.2072 39.45 28.1446C41.212 28.0821 41.3541 28.7699 42.5847 28.1247C43.6504 27.6672 44.2046 28.1049 44.5514 29.1052C44.9009 30.1056 44.3467 31.1884 42.9741 31.771C42.7893 32.689 42.3175 36.0625 37.8329 37.7478C34.3287 39.0608 31.3389 36.7275 31.0518 34.8745C30.887 33.4592 31.7083 32.564 33.0583 32.5412C33.2657 30.6229 34.5361 27.9997 37.2588 29.2274Z" fill="white"/>
<path d="M44.0001 21.8979C42.4853 23.3558 41.3172 22.4606 40.5584 22.2105C41.664 24.0237 41.3769 25.6266 39.5353 26.4792C37.6908 27.3318 36.6251 26.2291 35.6645 25.1662C30.3386 25.7715 28.4117 23.3956 28.4117 23.3956C28.4117 23.3956 28.0422 23.6656 27.2038 24.1658C27.4084 25.9563 26.1807 27.2494 25.8311 27.9343C23.8019 28.9972 22.6651 28.6533 21.9177 28.227C20.0135 27.4966 20.8946 24.6234 20.8946 24.6234C20.8946 24.6234 19.0302 27.0817 17.288 26.9964C15.5459 26.914 14.7075 25.7687 14.1732 24.018C14.1732 24.018 7.9151 25.871 7.82132 30.6825C7.69911 33.7121 9.23379 36.1505 12.8318 36.9634C13.2325 37.8387 13.6616 39.0267 16.2734 38.2451C17.0721 39.0892 20.0533 40.7745 22.9408 38.2451C22.9408 38.2451 24.2311 37.3698 24.6517 35.6759H31.1002V35.494H31.1769C31.1769 35.494 32.2512 38.2423 36.5228 37.9609C39.4728 37.6795 41.3172 35.494 41.3172 35.494C41.3172 35.494 44.0626 35.8067 45.9469 34.4311C47.3196 33.5359 48.4677 31.4328 48.4251 29.037C48.3029 25.1662 44.0456 21.8552 44.0001 21.8979Z" fill="#161616"/>
<path d="M29.1477 25.6238C29.1477 25.6238 30.583 24.271 31.8107 25.9165C31.3588 26.4792 31.0945 27.292 30.0884 27.2068C29.0852 27.1244 29.1477 25.6238 29.1477 25.6238Z" fill="#F11A25"/>
<path d="M28.4088 23.3957C28.4088 23.3957 26.607 25.0213 24.0662 24.6235C22.3866 24.3307 21.8324 23.8533 21.3407 23.3531C20.8491 22.8529 21.2185 18.5614 23.1852 18.4364C23.657 18.7291 24.1884 19.9569 26.0954 19.8745C26.0926 19.8773 26.894 22.1879 28.4088 23.3957Z" fill="white"/>
<path d="M33.7347 18.3141C33.7347 18.3141 35.2097 18.2089 36.0282 16.0035C36.9718 16.0234 37.9125 16.3361 38.3445 16.9812C38.0176 17.9588 36.932 20.3973 34.5532 19.0843C33.982 18.7944 33.8797 18.6466 33.7347 18.3141Z" fill="white"/>
<path d="M25.7856 10.9817C26.6695 10.5554 28.5708 11.1067 29.1875 14.3353C29.8014 17.5638 27.937 18.5841 27.0162 18.5215C26.0954 18.459 24.3731 18.1038 23.9639 14.7303C23.7593 12.6499 24.9671 11.3796 25.7856 10.9817Z" fill="white"/>
<path d="M30.5403 10.4617C31.4668 10.0098 33.1408 11.067 33.6125 13.19C34.0843 15.3158 33.695 16.9386 32.22 17.2711C30.745 17.6036 29.4121 16.0007 29.2302 14.125C29.0454 12.2521 29.557 10.942 30.5403 10.4617Z" fill="white"/>
<path d="M34.5361 25.1804C34.5361 25.1804 39.0606 24.6205 40.2713 18.3681C40.5441 16.8107 40.6067 13.5878 40.8369 12.8262C41.0671 12.0645 41.7094 11.877 41.7094 11.877L42.076 12.7637C42.076 12.7637 41.6781 13.261 41.9225 14.5342C42.1669 15.8075 42.1072 18.9024 41.2205 20.3945C40.3338 21.8865 38.8958 24.8564 35.1813 25.1179L34.5361 25.1804Z" fill="white"/>
<path d="M26.3284 20.0989C26.3284 20.0989 29.1363 24.2966 32.7172 23.9612C36.2953 23.6259 39.1316 21.2471 40.3707 17.6633C40.0666 19.4282 39.4357 23.4298 34.8089 25.3055C32.2767 25.8654 28.0648 24.8309 26.3284 20.0989Z" fill="white"/>
<path d="M16.3615 20.2666C16.3615 20.2666 14.4062 23.9328 16.5263 25.3879C18.6464 26.843 21.0423 24.2682 21.0423 24.2682C21.0423 24.2682 18.9221 27.9059 16.0034 26.6185C14.2953 25.6664 13.3063 22.8955 15.7817 20.5451C16.0318 20.295 16.3615 20.2666 16.3615 20.2666Z" fill="white"/>
<path d="M20.8774 24.7172C20.8774 24.7172 20.9883 27.4597 23.5205 27.2352C26.0527 27.0107 26.9337 25.8625 26.9337 25.8625C26.9337 25.8625 26.6865 26.843 25.723 27.7951C24.8534 28.5226 23.2647 28.9262 21.9517 28.1873C21.1531 27.9372 20.1612 26.2291 20.8774 24.7172Z" fill="white"/>
<path d="M42.2722 16.7112C42.2722 16.7112 44.5031 18.1947 43.6221 20.1273C42.7411 22.0598 40.7034 21.7785 40.7034 21.7785L40.4817 22.057C40.4817 22.057 43.0708 23.9043 44.6111 21.1049C45.3273 19.5958 44.8868 17.4387 42.2722 16.7112Z" fill="white"/>
<path d="M30.6796 1.7936C30.6796 1.7936 33.0214 -0.417479 34.2577 2.35348C34.8914 3.92227 35.69 6.21577 36.0481 7.58846C36.4062 8.96115 37.3412 10.3594 38.6372 10.8085C38.8304 10.1917 38.9129 9.91322 38.9129 9.91322C38.9129 9.91322 37.5913 9.74554 36.5995 6.27545C35.6076 2.80536 34.755 0.230499 32.6349 0.341337C31.589 0.449334 30.8728 1.14847 30.6796 1.7936Z" fill="white"/>
<path d="M43.8125 12.039C43.8125 12.039 46.0151 12.8234 45.4921 15.2022C46.0975 14.1933 46.4016 12.0959 44.0882 11.2262C44.1166 11.6184 43.8125 12.039 43.8125 12.039Z" fill="white"/>
<path d="M42.0248 8.76217C42.0248 8.76217 39.1601 9.54657 38.7764 11.6724C38.5292 10.9733 39.7114 7.55716 42.2181 8.22788C42.0248 8.50924 42.0248 8.76217 42.0248 8.76217Z" fill="white"/>
<path d="M42.0248 8.98664C41.931 9.56357 42.3005 9.5181 42.5477 9.0719C42.795 8.62286 43.9517 7.72763 44.1165 9.43568C44.1989 8.31593 44.1705 7.64521 43.4003 7.55995C42.7666 7.50311 42.1328 8.31593 42.0248 8.98664Z" fill="white"/>
<path d="M43.1248 22.6454C43.1248 22.6454 49.0162 26.2292 48.3285 30.8759C48.3285 28.0765 48.4109 25.8086 44.1166 22.0571C43.5937 22.2816 43.1248 22.6454 43.1248 22.6454Z" fill="white"/>
<path d="M48.3853 29.1393C48.3853 29.1393 47.5327 33.1977 42.9343 32.274C42.4114 33.786 41.502 35.4656 41.502 35.4656C41.502 35.4656 44.8612 35.7725 46.7597 33.8712C48.0528 32.5838 48.5501 30.5688 48.3853 29.1393Z" fill="white"/>
<path d="M42.1328 31.9672C42.1328 31.9672 38.9953 39.3024 31.589 36.1392C32.2768 37.0629 34.701 38.9102 38.1967 37.5943C41.2262 36.5314 42.2437 34.3203 42.9883 31.8563C42.3829 31.8847 42.1328 31.9672 42.1328 31.9672Z" fill="white"/>
<path d="M41.2263 31.8847C40.4192 31.8222 40.6494 30.9895 41.1979 31.0719C41.7492 31.1571 44.2274 30.9042 44.5855 29.6708C44.6111 30.4012 43.8125 32.0808 41.2263 31.8847Z" fill="white"/>
<path d="M44.503 29.1393C44.54 29.2189 43.8693 28.4118 42.5477 28.9717C41.2262 29.5315 40.6749 29.3923 39.7398 29.0285C38.8048 28.6647 37.8954 29.6708 37.5373 30.5689C37.1792 31.4641 36.409 32.3053 36.6278 30.8474C36.8495 29.3923 37.8385 27.9372 39.9047 28.1333C41.391 28.3578 41.7207 28.5255 42.3829 28.2185C43.0422 27.9088 43.8948 27.7979 44.503 29.1393Z" fill="white"/>
<path d="M36.9291 29.756C36.9291 29.756 34.3969 29.1137 33.5415 32.6123C33.1009 32.6123 32.9901 32.4162 32.9901 32.4162C32.9901 32.4162 33.2658 29.9806 34.6982 29.1677C36.1305 28.3549 37.1764 29.1962 37.1764 29.1962L36.9291 29.756Z" fill="white"/>
<path d="M33.7092 32.6663C34.2861 32.8908 34.5902 33.2262 33.5983 33.2546C32.6065 33.283 31.0661 33.8998 31.4782 35.9432C30.9837 35.4685 30.8729 33.8173 31.6146 33.0869C32.3592 32.3594 33.7092 32.6663 33.7092 32.6663Z" fill="white"/>
<path d="M42.1328 28.2157C42.1328 28.2157 43.5084 27.1243 44.9691 27.0959C45.5205 27.0959 45.6569 26.5929 44.6395 26.5076C43.622 26.4223 41.914 26.7037 40.3168 28.1304C40.8397 28.2441 41.1978 28.4402 42.1328 28.2157Z" fill="white"/>
<path d="M44.6679 26.3685C44.6679 26.3685 43.2355 25.8654 40.9506 26.1724C41.5559 26.9852 41.7207 27.0108 41.7207 27.0108C41.7207 27.0108 43.1787 26.286 44.6679 26.3685Z" fill="white"/>
<path d="M21.264 21.4091C21.264 21.4091 21.5113 23.0432 22.8328 22.543C23.2619 23.0972 25.1519 24.0834 27.8603 22.8983C28.2753 23.2933 28.3264 23.4525 28.3264 23.4525C28.3264 23.4525 25.1775 26.1126 21.5226 23.532C21.0821 23.1086 20.9144 22.2389 21.264 21.4091Z" fill="white"/>
<path d="M35.7951 25.3737C35.7297 25.2515 37.2587 26.2718 39.1345 25.4021C41.0102 24.5325 40.5697 22.1196 40.5697 22.1196C40.5697 22.1196 42.0873 23.9698 40.8738 25.5982C39.6574 27.2239 36.6221 26.9425 35.7951 25.3737Z" fill="white"/>
<path d="M7.96334 30.6228C7.9804 30.5262 6.98285 35.1189 15.4037 36.6792C15.9863 37.8899 16.2762 38.3474 16.2762 38.3474C16.2762 38.3474 13.6815 39.3705 12.8345 37.0543C10.4274 36.2756 7.25 34.3658 7.96334 30.6228Z" fill="white"/>
<path d="M15.4037 36.6792C15.0201 35.7896 15.7732 35.5481 16.2507 36.5456C16.7281 37.5403 22.0228 40.2885 24.2736 36.0625C24.1401 36.952 22.739 39.8054 19.4024 39.5894C17.3363 39.453 16.1711 38.4554 15.4037 36.6792Z" fill="white"/>
<path d="M15.1139 31.6176C15.1139 31.6176 14.8211 29.8129 11.8313 28.8978C10.9588 28.6818 11.8313 28.1162 13.2353 28.4402C14.6392 28.7642 16.5434 29.1393 17.18 30.4865C15.9864 30.8105 15.1139 31.6176 15.1139 31.6176Z" fill="white"/>
<path d="M13.7895 32.9903C13.2922 33.4791 13.5508 33.8514 14.9008 32.9903C16.2507 32.1291 23.0545 29.9493 24.5124 35.2781C24.2993 33.2062 23.7963 31.4016 20.6217 30.4069C17.4415 29.4122 15.4294 31.376 13.7895 32.9903Z" fill="white"/>
<path d="M14.4516 24.97C14.4516 24.97 8.01734 26.7747 8.12249 32.9362C7.61945 31.0519 7.32957 26.6923 14.1049 23.8645C14.3181 24.4585 14.4516 24.97 14.4516 24.97Z" fill="white"/>
<path d="M21.6533 2.57503C22.4121 2.75123 18.6095 3.83972 19.1126 7.58265C19.6156 11.3227 18.9534 12.5078 16.2791 13.7725C13.6048 15.0372 11.5926 16.4383 12.6243 18.6977C13.6559 20.96 16.5945 20.0449 16.5945 20.0449C16.5945 20.0449 13.6815 22.3071 11.5642 19.2633C10.3194 17.3535 11.6438 14.6081 14.6364 13.477C17.3363 12.3999 18.3964 11.2147 18.1576 8.33578C17.9189 5.45682 18.2912 1.79632 21.6533 2.57503Z" fill="white"/>
<path d="M25.112 7.44338C25.1689 7.67074 25.3223 7.71053 25.2854 7.37517C25.2484 7.03697 24.9301 5.3005 23.907 3.8454C22.8839 2.39029 21.2867 1.61726 19.6895 2.35334C18.0923 3.08942 17.8137 5.0703 17.9956 7.0995C18.1775 9.12869 18.1093 10.3138 17.4017 11.371C16.694 12.4283 15.3298 12.9256 14.5255 13.3377C13.7213 13.7498 12.6356 14.196 11.7461 15.3356C10.8565 16.4753 10.7514 18.0157 11.3539 19.2548C11.9564 20.4939 13.3262 21.5596 15.381 20.9316C16.4268 20.6104 17.8734 19.4395 18.6635 18.4903C18.7687 18.3908 18.8596 18.2601 18.2656 18.7745C17.6716 19.286 15.4037 20.9713 13.8975 20.636C12.3912 20.2978 11.3368 19.1496 11.3738 17.4217C11.4107 15.6909 12.7067 14.574 13.9941 14.0596C15.2815 13.548 17.2169 12.721 17.8336 11.4961C18.4504 10.2712 18.4816 9.18553 18.3083 7.12507C18.1349 5.06462 18.5868 3.51856 19.7833 2.84501C20.9854 2.16861 23.8218 2.36755 25.112 7.44338Z" fill="white"/>
<path d="M16.0602 20.5082C16.0602 20.5082 14.787 21.6649 14.5397 23.0347C14.2925 24.4046 14.8722 25.692 16.1057 26.4195C17.3391 27.1471 19.3285 26.8402 21.3606 23.7168C21.4742 23.6713 21.443 23.7708 21.443 23.7708C21.443 23.7708 20.7268 25.2629 19.6212 26.2746C18.5157 27.2864 16.7451 27.6302 15.398 26.5275C14.0509 25.4248 13.9827 24.0181 14.1475 23.0518C14.3124 22.0883 15.1053 21.2613 15.5543 20.7696C15.9551 20.349 16.0602 20.5082 16.0602 20.5082Z" fill="white"/>
<path d="M20.7582 24.7513C20.7582 24.7513 20.0875 26.0757 20.7582 27.4143C21.4289 28.7528 23.3188 29.2275 25.0951 28.5255C26.8713 27.8207 27.2635 26.1837 27.309 24.1999C27.2181 24.2397 27.1356 24.3221 27.1356 24.3221C27.1356 24.3221 27.0816 25.7062 26.3001 26.9794C25.5185 28.2526 23.5377 28.7415 21.9859 28.0281C21.1418 27.653 20.2381 26.3599 21.1958 24.1403C20.8946 24.4813 20.7582 24.7513 20.7582 24.7513Z" fill="white"/>
<path d="M28.4145 23.5064C26.4535 25.2912 24.376 24.9644 23.6342 24.8479C22.469 24.6063 21.3947 24.018 21.0992 23.5661C20.8036 23.1142 20.6672 21.8524 21.0992 20.6104C21.5312 19.3685 22.3411 18.3596 23.0147 18.2942C23.6911 18.2288 23.8815 18.6551 24.0577 18.9166C24.5153 19.5049 25.2144 19.6953 25.2144 19.6953C25.2144 19.6953 26.0045 19.9511 26.1523 20.0079C24.6545 20.2097 23.9525 19.4196 23.7905 19.2633C23.6286 19.107 23.4694 18.7262 23.0829 18.6892C22.6964 18.6495 21.983 19.3628 21.5908 20.4797C21.1986 21.5966 21.21 23.1029 21.5653 23.37C22.9919 24.4159 24.0861 24.5807 25.6748 24.4102C27.2635 24.2397 28.2724 23.37 28.2724 23.37L28.4145 23.5064Z" fill="#040404"/>
<path d="M35.619 25.3196C35.619 25.3196 36.5967 26.8174 37.9608 26.968C39.325 27.1186 40.2316 26.5303 40.9648 25.7204C41.6981 24.9104 41.9112 23.3785 40.6494 21.9661C40.4817 22.0968 40.3993 22.273 40.3993 22.273C40.3993 22.273 41.1979 23.1824 41.1013 24.0919C41.0046 25.0013 40.6892 25.6038 39.5779 26.2177C38.4639 26.8316 37.0571 26.6753 35.8919 25.277C35.6958 25.26 35.619 25.3196 35.619 25.3196Z" fill="#040404"/>
<path d="M40.9249 22.4947C40.9249 22.4947 42.1982 23.2678 43.4202 22.6511C44.6423 22.0372 44.9123 21.1334 45.0402 20.7156C45.1681 20.2979 45.5745 18.7461 44.216 17.4388C43.4174 16.8249 43.2327 16.7454 42.093 16.5237C42.1243 16.7056 42.1584 16.7709 42.1584 16.7709C42.1584 16.7709 43.4117 17.1035 44.0824 17.9276C44.7503 18.7518 44.9521 19.6016 44.4746 20.8776C44 22.1537 42.4483 23.1797 40.6208 22.0343C40.7175 22.3498 40.9249 22.4947 40.9249 22.4947Z" fill="#040404"/>
<path d="M43.1162 16.8646C43.4601 16.876 44.5003 16.8589 45.2449 16.0404C45.9895 15.2219 46.2737 14.0709 46.0492 12.954C45.8247 11.8371 44.7873 11.1948 44.0484 10.9333C44.0939 11.3057 44.1053 11.3454 44.1053 11.3454C44.1053 11.3454 44.8072 11.462 45.3927 12.3856C45.9781 13.3064 45.6257 14.5313 45.3273 15.1111C45.0318 15.6937 44.1308 16.8504 42.1187 16.3673C42.042 16.5321 42.1187 16.6486 42.1187 16.6486C42.1187 16.6486 42.7951 16.8504 43.1162 16.8646Z" fill="#040404"/>
<path d="M29.7957 6.68463C29.8298 6.92336 30.0259 7.04841 29.9804 6.5738C29.935 6.09918 29.8554 4.20356 30.3897 2.72856C30.924 1.25356 31.7197 0.517476 32.7315 0.483372C33.7404 0.45211 34.8005 1.31324 35.3973 3.16623C35.9941 5.02206 36.571 6.76705 36.8325 7.48324C37.0968 8.19658 37.5856 9.50959 38.8503 10.1291C39.0578 9.87337 39.0578 9.69432 39.0578 9.69432C39.0578 9.69432 38.2791 9.46412 37.5771 8.27332C36.8751 7.07967 36.2158 4.39682 35.835 3.33959C35.4513 2.28236 34.8289 0.0314925 32.6604 0.000230403C30.4891 -0.0310317 29.2642 3.1236 29.7957 6.68463Z" fill="white"/>
<path d="M34.2491 18.0242C34.2491 18.0242 35.5024 17.2739 35.619 16.2849C35.6928 15.8899 35.9401 15.7961 36.4204 15.7734C36.9007 15.7535 37.722 16.0206 38.3473 16.8647C38.4098 17.2313 38.245 17.021 38.245 17.021C38.245 17.021 37.5174 16.1883 36.1135 16.2622C36.1135 16.2622 35.9486 18.1152 33.7177 18.5216C33.837 18.2004 34.2491 18.0242 34.2491 18.0242Z" fill="white"/>
<path d="M33.8371 18.4391C33.8371 18.4391 34.5959 19.3656 35.8237 19.2832C37.0514 19.2008 37.9211 18.2118 38.3587 16.336C38.7964 14.4603 38.2223 12.38 38.5179 10.868C38.8163 9.35891 40.1066 7.65939 42.258 8.09706C42.2381 8.242 42.1358 8.34715 42.1358 8.34715C42.1358 8.34715 40.4362 8.07716 39.3591 9.96141C38.8788 10.9192 38.6117 11.3256 38.8561 14.4404C38.947 15.6284 38.947 17.5553 37.5033 19.0132C36.0595 20.4712 34.0929 19.3997 33.55 18.4704C33.695 18.3141 33.8371 18.4391 33.8371 18.4391Z" fill="white"/>
<path d="M32.1205 18.0386C32.0153 17.8965 32.0011 17.7686 32.183 17.9277C32.3649 18.0869 32.9901 18.3739 33.4989 18.2261C34.0076 18.0783 34.3515 17.7572 34.3912 17.2854C34.3941 17.0922 34.5078 17.0524 34.5078 17.3906C34.5078 17.7259 34.3628 18.4023 33.5699 18.5643C32.777 18.7235 32.2825 18.2545 32.1205 18.0386Z" fill="white"/>
<path d="M27.0957 19.2775C27.181 19.1809 27.2861 19.2093 27.1895 19.3401C27.0929 19.4708 26.7405 20.0932 26.1067 20.0648C25.4729 20.0392 24.9926 19.8232 24.7482 19.0473C24.7113 18.9365 24.7568 18.8569 24.8477 19.0161C24.9386 19.1724 25.4303 19.6669 25.8964 19.6953C26.3625 19.7266 26.7746 19.6356 27.0957 19.2775Z" fill="white"/>
<path d="M26.3142 19.971C26.3142 19.971 26.6808 21.2272 28.2553 22.8841C29.8298 24.541 31.9613 25.1008 33.0981 25.1463C34.2349 25.1889 36.2129 25.1179 38.2819 23.7452C40.3509 22.3753 41.0699 20.4286 41.4025 19.3884C41.735 18.3482 42.0874 16.7482 41.7975 14.9605C41.6412 13.8181 41.5303 13.2156 41.9964 12.6074C42.2011 12.4653 42.3289 12.9171 42.3289 12.9171C42.3289 12.9171 42.0192 13.2326 42.0533 13.9999C42.0874 14.7673 42.2721 15.6227 42.2295 16.734C42.1868 17.8452 42.1812 18.4136 41.8401 19.576C41.5019 20.7383 40.7033 22.3469 39.3278 23.5463C37.9523 24.7456 36.2073 25.5982 33.7773 25.6351C31.3474 25.6721 29.6195 24.703 28.1502 23.3445C27.6557 22.9295 26.5103 21.4517 26.0101 19.9568C26.0528 19.8772 26.3142 19.971 26.3142 19.971Z" fill="#040404"/>
<path d="M28.1672 23.2649C28.1672 23.2649 28.6163 23.9441 28.8351 24.828C29.0568 25.7119 29.0568 25.7858 29.1023 26.2803C29.1477 26.7748 29.4064 27.2494 29.9719 27.3688C30.5375 27.4881 31.0945 27.2295 31.6345 26.4451C31.8931 26.0359 32.1546 25.422 32.1546 25.422L31.9926 25.3765C31.9926 25.3765 31.6743 26.0842 31.2849 26.5304C30.8956 26.9766 30.2789 27.2494 29.8099 26.9879C29.5172 26.806 29.4206 26.5559 29.3438 26.1325C29.2671 25.709 29.142 24.72 28.6419 23.6628C28.3946 23.2763 28.1672 23.2649 28.1672 23.2649Z" fill="white"/>
<path d="M29.1734 25.8512C29.1734 25.8512 29.6565 25.2828 30.3897 25.3027C31.123 25.3226 31.5436 25.692 31.7596 26.0473C31.8818 25.8029 31.9983 25.5528 32.1035 25.2998C32.1035 25.2998 31.0519 25.1151 30.33 24.6717C29.5712 24.2227 28.4259 23.5833 28.4259 23.5833C28.4259 23.5833 28.8209 23.9385 29.1734 25.8512Z" fill="white"/>
<path d="M34.6583 25.1606C34.6583 25.1606 36.4118 24.6973 37.5856 23.5094C38.7593 22.3214 39.3249 21.1818 39.6574 20.2581C39.9899 19.3316 40.2628 18.2943 40.385 17.1461C40.5072 15.9979 40.5356 15.1482 40.5811 14.2558C40.6294 13.3662 40.7175 12.0248 41.7633 11.7207C41.7577 11.7832 41.7236 11.9339 41.7236 11.9339C41.7236 11.9339 41.4848 11.9509 41.1182 12.4369C40.7516 12.9229 40.6805 13.6732 40.6209 15.205C40.5612 16.7368 40.5555 18.0158 40.132 19.4254C39.7114 20.835 39.0407 22.1907 38.0119 23.3189C37.6055 23.7879 36.6676 24.4927 35.491 25.0099C35.0477 25.2231 34.6583 25.1606 34.6583 25.1606Z" fill="white"/>
<path d="M23.0715 9.34195C22.9862 9.20554 23.0033 9.1487 23.1425 9.0066C23.2818 8.8645 24.6829 7.7078 26.2829 7.79306C26.4819 7.79306 26.4904 7.84137 26.5302 7.98916C26.5671 8.13694 26.9139 9.58921 27.0219 9.87057C27.0901 10.0581 27.0531 10.0894 26.8996 10.0724C26.7462 10.0581 25.4389 10.0866 24.1116 11.2518C23.9354 11.4479 23.944 11.229 23.7962 10.8766C23.6455 10.5271 23.3017 9.72278 23.0715 9.34195Z" fill="white"/>
<path d="M29.3153 7.34111C29.2897 7.13081 29.2926 7.09954 29.5 7.04555C29.7075 6.99155 30.9978 6.65619 32.3875 7.61679C32.541 7.72763 32.5325 7.75889 32.4728 8.03172C32.4102 8.30456 32.2738 9.32768 32.2028 9.86766C32.18 10.1007 32.1403 10.0325 31.9498 9.93018C31.7566 9.82787 30.8216 9.28221 29.608 9.66588C29.3551 9.74261 29.4091 9.55788 29.4148 9.25947C29.4233 8.95822 29.3778 7.83278 29.3153 7.34111Z" fill="white"/>
<path d="M41.9169 9.13443C41.9311 9.38737 41.9964 9.45274 42.0845 9.09749C42.1755 8.74508 42.5563 7.847 43.2356 7.70206C43.912 7.55712 44.1876 8.42677 44.0285 9.27653C43.8693 10.1291 43.6903 10.0922 43.7699 10.6265C43.8494 11.1608 43.912 11.985 43.4231 12.3914C42.9343 12.7978 41.8629 12.7438 41.8458 11.4393C41.8543 11.2233 41.7748 11.1693 41.7037 11.5672C41.6327 11.9622 41.6952 12.9257 42.5052 13.0422C43.3151 13.1587 43.9176 12.7893 44.1621 12.1185C44.4065 11.4478 43.912 10.5696 43.9915 10.2513C44.0711 9.93304 44.4548 9.60052 44.5003 8.6314C44.5457 7.66227 43.8324 7.04556 43.0224 7.27292C42.2124 7.50596 41.8828 8.52056 41.9169 9.13443Z" fill="white"/>
<path d="M43.3464 8.94407C43.443 8.87302 43.5084 8.89576 43.3834 9.05207C43.2583 9.20838 42.8974 9.78246 42.8974 10.6436C42.9002 10.9818 43.0366 11.4024 43.1191 11.4109C43.1986 11.4195 43.2953 11.2774 43.3322 11.2205C43.3692 11.1637 43.3976 11.1353 43.3805 11.3626C43.3606 11.59 43.2214 11.7577 43.031 11.7264C42.8405 11.6951 42.5592 11.2717 42.5848 10.5271C42.6103 9.77962 43.0082 9.19417 43.3464 8.94407Z" fill="white"/>
<path d="M44.2076 21.8695C44.2076 21.8695 45.9525 23.2536 47.0041 24.7115C48.0556 26.1695 49.5306 29.2275 48.1835 32.186C46.8364 35.1445 43.7557 35.9375 41.2291 35.6618C41.2433 35.46 41.556 35.3435 41.556 35.3435C41.556 35.3435 43.534 35.5367 45.4609 34.5079C47.3878 33.4791 48.4279 31.1885 48.2574 29.2133C48.0869 27.2352 46.9927 24.5239 44.0001 22.0997C43.9518 21.9263 44.2076 21.8695 44.2076 21.8695Z" fill="white"/>
<path d="M40.564 28.0963C40.564 28.0963 42.2323 26.59 44.8043 26.5502C45.0231 26.5502 45.0942 26.5246 44.7219 26.4252C44.3468 26.3257 42.2408 26.0983 39.9729 27.9456C40.1207 28.0963 40.564 28.0963 40.564 28.0963Z" fill="white"/>
<path d="M41.4223 27.0987C41.4223 27.0987 41.0159 26.5246 40.8795 26.3598C40.743 26.195 40.8652 26.0045 41.0869 26.2149C41.3058 26.4252 41.86 26.9481 41.86 26.9481C41.86 26.9481 41.5587 27.0788 41.4223 27.0987Z" fill="white"/>
<path d="M36.6335 31.1686C36.5994 31.3363 36.5681 31.268 36.5568 31.0123C36.5425 30.7565 36.679 29.614 37.3809 28.7927C38.0829 27.9713 39.3561 27.6644 40.1206 27.8719C40.8681 28.0736 41.2603 28.2982 41.9054 28.0822C42.5505 27.8662 43.2326 27.3603 43.9687 27.8321C44.7048 28.3038 45.33 29.5941 44.5741 30.8389C43.8209 32.0837 42.1044 32.2599 41.1636 31.953C40.9761 31.8876 41.0272 31.7768 41.3001 31.8279C41.5701 31.8791 42.7239 31.8535 43.7442 31.1004C44.7616 30.3472 44.486 28.9831 44.0341 28.5198C43.693 28.139 43.3378 28.0282 42.8944 28.2186C42.4511 28.409 41.6894 28.8154 40.851 28.5454C40.0126 28.2754 39.2964 28.0935 38.2676 28.625C37.2331 29.1564 36.7756 30.4552 36.6335 31.1686Z" fill="white"/>
<path d="M37.2702 29.1166C37.2702 29.1166 36.5739 28.5198 35.4087 28.696C34.2435 28.8722 32.9475 30.2676 32.8964 32.3906C33.1351 32.4901 33.2005 32.4503 33.2005 32.4503C33.2005 32.4503 33.1237 31.0946 34.2833 29.8811C35.4428 28.6676 36.8411 29.1734 37.1395 29.3582C37.3242 29.2814 37.2702 29.1166 37.2702 29.1166Z" fill="white"/>
<path d="M33.9081 32.655C34.0616 32.7459 34.107 32.8454 33.7916 32.78C33.4761 32.7146 32.3876 32.5242 31.626 33.4081C30.8643 34.292 31.2338 36.2529 33.064 37.1624C34.8943 38.0718 36.7643 37.8501 38.0915 37.4324C39.4188 37.0118 40.476 36.2927 41.3911 35.119C42.3062 33.9452 42.7325 32.6749 42.815 31.8819C43.0849 31.7654 43.1304 31.8308 43.1304 31.8308C43.1304 31.8308 43.0338 32.7686 42.5876 33.7832C42.1414 34.7978 41.2007 36.3979 39.2028 37.4466C37.2048 38.4953 34.9682 38.3447 33.9251 38.0292C32.8821 37.7137 31.3077 36.8952 30.9098 35.3293C30.5091 33.7633 31.2565 32.8653 32.0437 32.5327C32.4388 32.3793 33.0896 32.1718 33.9081 32.655Z" fill="white"/>
<path d="M17.1033 30.4581C16.5406 29.8897 14.9547 28.5624 12.2548 28.426C11.8825 28.3891 12.0587 28.2981 12.6385 28.2726C13.1984 28.247 15.4322 28.318 17.4926 30.2477C17.5608 30.316 17.2596 30.6172 17.1033 30.4581Z" fill="white"/>
<path d="M38.7394 11.8883C38.7394 11.8883 38.9185 12.2578 39.5096 12.3914C39.6062 12.4084 39.7057 12.3999 39.5295 12.3629C39.3533 12.326 38.9384 12.0787 38.765 11.8059C38.694 11.7235 38.7394 11.8883 38.7394 11.8883Z" fill="white"/>
<path d="M38.7025 12.6074C38.7025 12.6074 39.0549 13.1105 39.538 13.2241C39.6432 13.2412 39.5807 13.2639 39.4584 13.2497C39.3362 13.2355 39.0094 13.1304 38.7138 12.7893C38.6655 12.6387 38.7025 12.6074 38.7025 12.6074Z" fill="white"/>
<path d="M38.1057 18.1208C38.1057 18.1208 38.2734 18.7177 38.8077 19.0985C38.8958 19.161 38.9697 19.0729 38.8588 18.9933C38.7451 18.9138 38.3359 18.5557 38.1767 18.0612C38.083 17.993 38.1057 18.1208 38.1057 18.1208Z" fill="white"/>
<path d="M37.7618 18.6154C37.7618 18.6154 37.7675 19.198 38.3103 19.5419C38.4183 19.6044 38.4809 19.522 38.3473 19.4225C38.2137 19.3259 37.8983 19.1468 37.8357 18.55C37.7789 18.5045 37.7618 18.6154 37.7618 18.6154Z" fill="white"/>
<path d="M34.6101 21.2556C34.5703 21.3806 34.7152 21.5199 34.7778 21.3323C34.8403 21.1448 34.9369 20.5963 35.8037 20.0904C35.8918 20.0563 35.9089 20.0051 35.6986 20.079C35.4883 20.1501 34.8914 20.4058 34.6101 21.2556Z" fill="white"/>
<path d="M34.3173 20.9999C34.3003 21.1164 34.1127 21.105 34.1326 20.9629C34.1525 20.818 34.4878 20.0051 35.3461 19.9085C35.4967 19.8943 35.5394 19.9028 35.3717 19.9426C35.204 19.9796 34.4026 20.3973 34.3173 20.9999Z" fill="white"/>
<path d="M31.876 18.8854C32.0238 18.9138 32.0039 18.9877 31.8277 18.9536C31.6515 18.9167 30.4976 18.9849 29.8184 19.5504C29.6905 19.6584 29.6024 19.4879 29.7075 19.4027C29.8155 19.3202 30.742 18.6779 31.876 18.8854Z" fill="white"/>
<path d="M30.1509 20.1387C29.9974 20.2666 29.9235 20.0961 30.0372 19.9966C30.1509 19.8971 31.049 19.2605 32.1574 19.3287C32.2625 19.3372 32.3535 19.3571 32.1659 19.3713C31.9783 19.3855 30.9012 19.5134 30.1509 20.1387Z" fill="white"/>
<path d="M23.3017 18.7007C23.3017 18.7007 23.549 18.8229 23.5745 19.3686C23.6001 19.9171 23.6001 20.565 23.2477 21.5654C22.8953 22.5658 22.1848 23.39 21.48 23.3559C21.534 23.5037 21.7471 23.5577 21.7471 23.5577C21.7471 23.5577 22.6509 23.39 23.2477 21.7757C23.8445 20.1615 23.765 19.7068 23.6996 18.9366C23.549 18.7689 23.4609 18.7092 23.3017 18.7007Z" fill="#252525"/>
<path d="M11.2971 17.4814C11.3312 17.4899 13.2581 15.9979 15.8926 14.6678C15.9978 14.6138 16.1399 14.4888 15.759 14.6508C15.3782 14.8127 12.9142 15.9268 11.3397 17.0324C11.2175 17.3364 11.2971 17.4814 11.2971 17.4814Z" fill="white"/>
<path d="M14.4033 24.0635C14.4403 24.0635 16.5547 21.6392 18.8369 19.7522C18.9278 19.6754 19.0387 19.5219 18.7033 19.7635C18.3679 20.0051 15.6453 22.1849 14.3493 23.6144C14.2953 23.9413 14.4033 24.0635 14.4033 24.0635Z" fill="white"/>
<path d="M13.3234 20.9003C13.3604 20.906 15.7647 18.7773 18.2657 17.2057C18.3652 17.1432 18.4959 17.0039 18.1321 17.2C17.7683 17.3961 14.7928 19.2008 13.3263 20.4484C13.2297 20.7639 13.3234 20.9003 13.3234 20.9003Z" fill="white"/>
<path d="M15.381 26.3059C15.418 26.303 18.0582 22.4692 20.0817 20.3007C20.1641 20.2126 20.2522 20.0449 19.951 20.3291C19.6497 20.6133 16.3757 24.2795 15.2702 25.8682C15.256 26.1979 15.381 26.3059 15.381 26.3059Z" fill="white"/>
<path d="M17.4472 27.0419C17.4841 27.0391 18.4362 25.3935 20.6728 22.4833C20.7553 22.3952 20.8434 22.2275 20.5421 22.5117C20.2409 22.7959 18.4419 25.0155 17.3363 26.6042C17.3249 26.9367 17.4472 27.0419 17.4472 27.0419Z" fill="white"/>
<path d="M11.5699 19.4566C11.604 19.4652 15.2645 16.7709 17.899 15.4409C18.0042 15.3869 18.1463 15.2618 17.7655 15.4238C17.3846 15.5858 13.187 17.9049 11.6153 19.0076C11.4903 19.3145 11.5699 19.4566 11.5699 19.4566Z" fill="white"/>
<path d="M21.3521 27.6955L22.4803 24.3676L22.5457 24.3903L21.5766 27.9797L21.3521 27.6955Z" fill="white"/>
<path d="M23.2477 28.5567C23.2704 28.5567 24.1458 24.7484 24.1458 24.7484L24.2253 24.7711L23.5944 28.6675L23.2477 28.5567Z" fill="white"/>
<path d="M25.1859 28.2868C25.1859 28.2868 25.5156 25.8342 25.8026 24.7116C25.8822 24.6604 25.8822 24.7258 25.8822 24.7258L25.5014 28.1987L25.1859 28.2868Z" fill="white"/>
<path d="M37.9976 26.681C37.9976 26.6384 37.3354 24.6348 37.3354 24.6348L37.4974 24.5723L38.2705 26.627L37.9976 26.681Z" fill="white"/>
<path d="M38.694 23.9953L39.8024 26.2149L40.0184 26.0671C40.0184 26.0671 38.9612 24.1687 38.7452 23.8987C38.6088 23.768 38.694 23.9953 38.694 23.9953Z" fill="white"/>
<path d="M39.7769 22.9892L40.9989 24.8791L41.1183 24.5892L39.8536 22.9551L39.7769 22.9892Z" fill="white"/>
<path d="M41.2319 20.9174L43.4601 22.2986L43.659 22.1338C43.659 22.1338 42.2238 21.2584 41.2689 20.8577C41.1182 20.8122 41.2319 20.9174 41.2319 20.9174Z" fill="white"/>
<path d="M41.7974 19.4822L44.7134 20.889L44.7304 20.565C44.7304 20.565 42.6415 19.6471 41.823 19.3771C41.6525 19.3771 41.7974 19.4822 41.7974 19.4822Z" fill="white"/>
<path d="M44.8867 19.0899C44.7219 18.8455 44.6707 18.6977 44.6707 18.6977C44.6707 18.6977 43.028 18.1634 42.1157 17.902C42.022 17.902 42.1072 18.0157 42.0902 18.0071C42.0902 18.0043 43.9233 18.6182 44.8867 19.0899Z" fill="white"/>
<path d="M42.1413 15.4011L42.1157 15.4722L44.2131 16.4242C44.2131 16.4242 44.3751 16.2395 44.4007 16.2594C44.4291 16.2736 42.9427 15.637 42.1413 15.4011Z" fill="white"/>
<path d="M41.9964 13.5907L41.9708 13.6617C41.9708 13.6617 44.6025 14.5968 45.5574 15.1055C45.6171 14.9662 45.6512 14.79 45.6512 14.79C45.6512 14.79 43.1218 13.8777 41.9964 13.5907Z" fill="white"/>
<path d="M43.6477 12.7068L45.9355 13.423L45.8247 13.099L43.7188 12.6017L43.6477 12.7068Z" fill="white"/>
<path d="M25.6407 11.2744C24.9501 11.7092 24.4613 12.4339 24.2311 13.2325C24.1145 13.6361 24.0549 14.0539 24.052 14.4717C24.0492 14.682 24.0605 14.8894 24.0833 15.0969C24.1145 15.3044 24.16 15.5062 24.2169 15.7108C24.3305 16.1143 24.4868 16.5065 24.6943 16.8646C24.9018 17.2227 25.1632 17.5467 25.4759 17.7997C25.7885 18.0498 26.1551 18.226 26.5445 18.2856C26.6439 18.2942 26.7406 18.3084 26.84 18.3112C26.9395 18.3084 27.039 18.3084 27.1356 18.2998L27.4283 18.2572C27.5221 18.2288 27.6159 18.2061 27.7097 18.172C28.0763 18.0355 28.4003 17.7826 28.639 17.4529L28.7271 17.3279C28.7555 17.2853 28.7783 17.2398 28.8039 17.1943L28.8778 17.0579L28.9374 16.9158L28.9971 16.7708L29.0426 16.6202L29.0881 16.4724L29.1193 16.319C29.2017 15.9097 29.2131 15.4863 29.1733 15.0713C29.1421 14.6564 29.0341 14.2443 28.9403 13.8322C28.8238 13.4286 28.6959 13.0251 28.5026 12.6585C28.3207 12.2833 28.082 11.9423 27.7921 11.6638C27.5022 11.3852 27.147 11.1778 26.7633 11.0982C26.3768 11.0186 25.9675 11.0811 25.6407 11.2744ZM25.4787 11.0101C25.8851 10.7657 26.3711 10.6946 26.8201 10.7913C27.272 10.8822 27.6813 11.1209 28.0081 11.4307C28.1786 11.5813 28.315 11.7604 28.4514 11.9366L28.6333 12.2179C28.6646 12.2634 28.693 12.3117 28.7158 12.3629L28.7925 12.5107C29 12.9057 29.1364 13.3292 29.2586 13.7526C29.3154 13.9658 29.3552 14.1818 29.4035 14.3949C29.4433 14.6109 29.4746 14.8326 29.4888 15.0571C29.5115 15.5033 29.4746 15.9495 29.3751 16.3843L29.3382 16.5463L29.2898 16.7055L29.2387 16.8646L29.1762 17.0209L29.1136 17.1773L29.0369 17.3279C29.0113 17.3762 28.9886 17.4302 28.9573 17.4757L28.8635 17.6178C28.6163 17.9958 28.2639 18.3197 27.8376 18.4988C27.4084 18.6778 26.9423 18.7119 26.4933 18.6409C26.0414 18.5698 25.6151 18.3595 25.2712 18.0668C24.9245 17.7741 24.6488 17.4131 24.4329 17.0238C24.2169 16.6344 24.0605 16.2167 23.9497 15.7875C23.8957 15.5715 23.8531 15.3555 23.8218 15.1339C23.7991 14.9122 23.7849 14.6905 23.7877 14.4688C23.7934 14.0255 23.8531 13.5821 23.9724 13.153C24.2026 12.3004 24.7227 11.4989 25.4787 11.0101Z" fill="white"/>
<path d="M30.7989 10.5555C30.7591 10.5726 30.7165 10.5811 30.6738 10.5924C30.6312 10.6038 30.5943 10.6294 30.5573 10.6493C30.5204 10.672 30.4806 10.6919 30.4436 10.7175L30.3356 10.7971C30.2646 10.8482 30.2021 10.9164 30.1367 10.9761C30.0799 11.0472 30.0145 11.1097 29.9633 11.1836C29.7445 11.4763 29.5882 11.8145 29.4859 12.1726C29.3807 12.5307 29.3324 12.903 29.321 13.2781C29.3154 13.6533 29.3495 14.0313 29.412 14.4036C29.483 14.773 29.5854 15.134 29.7331 15.475C29.8838 15.8132 30.0855 16.1287 30.33 16.3987C30.5744 16.6687 30.8671 16.8903 31.1939 17.0296C31.5179 17.1717 31.8789 17.2143 32.2057 17.1404C32.541 17.0495 32.865 16.8847 33.1009 16.6203C33.3425 16.3617 33.5102 16.0292 33.6011 15.674C33.6949 15.3159 33.7176 14.9379 33.7063 14.5627L33.6892 14.2785C33.6807 14.1847 33.6636 14.091 33.6523 13.9972C33.6324 13.8096 33.5869 13.622 33.55 13.4345C33.5329 13.3407 33.5045 13.2497 33.4789 13.1588C33.4533 13.0678 33.4306 12.9741 33.4022 12.8831C33.334 12.7069 33.2828 12.5222 33.2004 12.3517C33.0554 12.0049 32.8622 11.6809 32.6235 11.3911C32.3876 11.104 32.1062 10.8624 31.7879 10.6976C31.7083 10.6578 31.6259 10.6237 31.5435 10.5924C31.4582 10.5697 31.3758 10.5385 31.2906 10.5299C31.12 10.5043 30.9438 10.5043 30.7989 10.5555ZM30.6994 10.2543C30.9183 10.1832 31.1343 10.1946 31.3389 10.2315C31.444 10.2457 31.5407 10.2827 31.6373 10.3139C31.7311 10.3537 31.8277 10.3907 31.9158 10.4418C32.2739 10.6379 32.5723 10.9193 32.8196 11.2319C33.0668 11.5474 33.2601 11.8969 33.4107 12.2607C33.496 12.4398 33.55 12.6302 33.6182 12.8149C33.6693 13.0053 33.729 13.1929 33.7745 13.3833C33.9478 14.145 34.0502 14.9492 33.8711 15.7479C33.7802 16.1429 33.604 16.5294 33.3283 16.842C33.0583 17.1603 32.6803 17.3792 32.2824 17.4843C31.8646 17.5781 31.4327 17.5156 31.0575 17.3507C30.6824 17.1859 30.3527 16.9301 30.0827 16.6317C29.8127 16.3305 29.5967 15.9837 29.4347 15.6171C29.2756 15.2477 29.1704 14.8611 29.0994 14.4661C29.0397 14.0739 29.0056 13.676 29.0141 13.2781C29.0283 12.8803 29.088 12.4795 29.2017 12.0959C29.3154 11.7122 29.4887 11.3399 29.7331 11.0131C29.79 10.9306 29.8639 10.8568 29.9321 10.78C30.0088 10.7118 30.077 10.6351 30.1623 10.5754C30.3214 10.4333 30.5119 10.3537 30.6994 10.2543Z" fill="white"/>
<path d="M27.434 15.6569C27.613 16.5038 27.3232 17.2882 26.7832 17.4047C26.2432 17.5241 25.6606 16.933 25.4787 16.086C25.2996 15.2391 25.5895 14.4547 26.1295 14.3382C26.6695 14.2188 27.2549 14.81 27.434 15.6569Z" fill="#181616"/>
<path d="M32.5354 14.8697C32.6917 15.6967 32.3989 16.447 31.8845 16.5493C31.3701 16.6488 30.8273 16.0605 30.671 15.2334C30.5147 14.4064 30.8074 13.6561 31.3218 13.5538C31.8362 13.4543 32.3791 14.0426 32.5354 14.8697Z" fill="#181616"/>
<path d="M38.5804 23.4212C38.1967 23.4212 37.9835 23.2819 37.9722 23.2734L38.0404 23.1682C38.0432 23.1711 38.3843 23.387 38.9697 23.2478L38.9981 23.37C38.8617 23.4041 38.7196 23.4212 38.5804 23.4212Z" fill="white"/>
<path d="M39.8252 21.5683C39.4813 21.5683 39.2596 21.4375 39.2426 21.429L39.3051 21.321C39.3278 21.3352 39.8934 21.6649 40.6323 21.1818L40.6977 21.2869C40.368 21.5029 40.0667 21.5683 39.8252 21.5683Z" fill="white"/>
<path d="M40.6038 19.4481C40.3083 19.4481 40.0837 19.3856 40.0638 19.3799L40.0979 19.2606C40.1065 19.2634 41.0102 19.5107 41.5701 18.9821L41.6525 19.073C41.3342 19.3743 40.9278 19.4481 40.6038 19.4481Z" fill="white"/>
<path d="M41.1921 16.9699C40.7885 16.9699 40.4844 16.7795 40.4788 16.7766L40.5441 16.6715C40.5754 16.6914 41.2859 17.1291 41.9452 16.5521L42.0248 16.6459C41.7435 16.896 41.4479 16.9699 41.1921 16.9699Z" fill="white"/>
<path d="M41.121 14.3325C40.851 14.3325 40.6294 14.2472 40.6123 14.2415L40.6549 14.125C40.6606 14.1278 41.3143 14.3722 41.6951 13.9943L41.7804 14.0852C41.5843 14.2756 41.337 14.3325 41.121 14.3325Z" fill="white"/>
<path d="M19.3115 39.9276C15.9864 39.7088 15.2133 36.4888 15.3441 36.4433C15.472 36.4007 16.6315 39.848 20.0362 39.4018C22.0796 39.1318 24.3419 37.3698 24.3589 35.2383C24.3703 33.9509 23.961 32.8737 23.1454 32.0382C21.9034 30.765 19.9595 30.3131 18.6749 30.3131C16.1626 30.3131 13.6161 33.3597 13.5053 33.2801C13.3945 33.2006 15.5544 30.0175 18.7232 29.8811C20.1044 29.8811 22.1194 30.3216 23.4665 31.7057C24.376 32.6407 24.825 33.8144 24.8136 35.2411C24.7938 37.6341 22.0768 40.0299 19.3115 39.9276Z" fill="white"/>
<path d="M13.8634 38.5408C13.3177 38.2907 12.9028 37.7962 12.6527 37.1738C11.6097 36.9777 7.31256 35.6817 7.43761 30.8702C7.49161 28.7785 8.73357 26.8175 10.9191 25.2686C12.5504 24.1147 14.2158 23.6543 14.284 23.6316C14.4119 23.589 14.4915 23.9328 14.3636 23.9755C14.3011 23.9954 8.12253 26.1723 8.00033 30.8503C7.87244 35.7272 12.7806 36.8498 12.8289 36.8611C12.9142 36.8782 12.9824 36.9379 13.0108 37.0203C13.2097 37.5773 13.5422 37.9667 13.997 38.1741C14.986 38.626 16.2507 38.123 16.2649 38.1173C16.3899 38.0661 16.5462 38.3873 16.4212 38.4384C16.3786 38.4612 14.7672 39.0523 13.8634 38.5408Z" fill="white"/>
<path d="M30.0657 28.6448H30.0486C28.9061 28.6334 28.6361 27.2266 28.7015 27.2124C28.7669 27.1982 29.1022 28.3862 30.0514 28.3947H30.0628C31.0149 28.3947 31.5009 27.2181 31.5634 27.2408C31.6316 27.2664 31.1882 28.6448 30.0657 28.6448Z" fill="white"/>
</svg>
