<svg width="100" height="22" viewBox="0 0 100 22" fill="none" xmlns="http://www.w3.org/2000/svg">
<path d="M91.1801 20.9364C92.9837 20.9364 94.4144 19.4853 95.5131 16.7356L99.9114 5.8064C99.9776 5.63085 100 5.52045 100 5.36662C100 4.99307 99.7138 4.773 99.2079 4.773H97.514C97.0081 4.773 96.6787 4.99295 96.5021 5.49898L94.1491 12.492L91.3998 5.49898C91.2015 4.99307 90.8728 4.773 90.3658 4.773H88.6503C87.9247 4.773 87.7272 5.27854 87.9691 5.82824L92.5874 16.0104L92.2575 16.7368C91.7955 17.7258 91.3562 18.1447 90.8287 18.1447C90.4329 18.1447 90.1245 17.9463 89.8824 17.7924C89.4203 17.4846 89.0033 17.6166 88.7164 17.9902L88.1885 18.6722C87.8148 19.1336 87.8593 19.5076 88.3429 19.9467C89.0475 20.585 89.7288 20.9364 91.1801 20.9364ZM82.3171 4.50877C80.4922 4.50877 79.0843 4.79436 77.6993 5.78432C77.1493 6.17995 77.2589 6.55421 77.567 7.01584L77.9847 7.6319C78.2928 8.09352 78.7326 8.04985 79.2389 7.78622C80.1402 7.30252 80.9763 7.14844 81.8778 7.14844C83.4606 7.14844 84.4735 7.96189 84.4735 9.72126V9.87594C83.5493 9.52412 82.4935 9.36979 81.3283 9.36979C78.0287 9.36979 76.6664 11.1508 76.6664 12.954C76.6664 14.7353 77.8537 16.4516 80.8229 16.4516C82.7144 16.4516 83.9894 15.6368 84.7595 14.5817C84.804 14.9107 84.848 15.2195 84.914 15.5498C85.0008 16.0104 85.3534 16.1869 85.8593 16.1869H86.6736C87.2224 16.1869 87.5533 15.8574 87.5533 15.3074V9.8973C87.5521 6.15786 85.2422 4.50877 82.3171 4.50877ZM81.3717 14.053C80.4041 14.053 79.7224 13.6578 79.7224 12.7994C79.7224 11.8983 80.3602 11.436 81.8779 11.436C82.8016 11.436 83.5715 11.5682 84.3408 11.7441C84.1202 13.2398 83.0871 14.053 81.3717 14.053ZM73.0067 16.3708L74.4964 15.7927C75.0548 15.5787 75.3238 15.193 75.3238 14.5731V1.87803C75.3238 1.2569 75.054 0.87177 74.4964 0.658093L73.0067 0.0794361C72.4068 -0.155839 72.0137 0.144591 72.0137 0.807583V15.6426C72.014 16.3068 72.407 16.6058 73.0067 16.3708ZM65.5154 4.50877C63.9317 4.50877 62.568 5.21302 61.622 6.33366C61.6006 6.04807 61.5565 5.74028 61.4682 5.45518C61.3364 4.99295 61.0286 4.77288 60.5222 4.77288H59.422C58.8733 4.77288 58.5434 5.08067 58.5434 5.67501V19.9694C58.5434 20.5419 58.8727 20.8493 59.422 20.8493H60.9621C61.5116 20.8493 61.8415 20.5419 61.8415 19.9694V14.934C62.7215 15.8786 63.9088 16.452 65.4262 16.452C68.6377 16.452 70.7486 13.989 70.7486 10.4916C70.7496 7.03791 68.7697 4.50877 65.5154 4.50877ZM64.745 13.6353C63.2055 13.6353 61.8427 12.7116 61.8427 10.6222V10.2045C61.8427 8.37923 63.1182 7.32375 64.7892 7.32375C66.2408 7.32375 67.4497 8.26992 67.4497 10.5345C67.4507 12.7993 66.1527 13.6353 64.745 13.6353ZM51.2416 4.50877C47.5466 4.50877 45.1282 7.27995 45.1282 10.4688C45.1282 13.8117 47.4373 16.4507 51.2416 16.4507C54.9145 16.4507 57.2905 13.6358 57.2905 10.4688C57.2905 7.16955 54.9806 4.50877 51.2416 4.50877ZM51.2205 13.6353C49.3071 13.6353 48.4269 12.1174 48.4269 10.4688C48.4269 8.86365 49.3066 7.32363 51.243 7.32363C53.134 7.32363 53.9914 8.81961 53.9914 10.4688C53.9914 12.1177 53.1339 13.6353 51.2205 13.6353ZM38.8827 4.50877C37.4089 4.50877 36.1115 5.10299 35.1879 6.11419V0.901935C35.1879 0.330397 34.8576 0.0224886 34.286 0.0224886H32.7681C32.2409 0.0224886 31.8885 0.330639 31.8885 0.901935V15.3072C31.8885 15.8566 32.241 16.1866 32.7681 16.1866H33.78C34.3077 16.1866 34.6594 15.988 34.7919 15.4395C34.8574 15.1753 34.8796 14.9334 34.9234 14.669C35.8034 15.7693 37.1009 16.4514 38.7502 16.4514C41.9833 16.4514 44.0719 13.9876 44.0719 10.5137C44.073 7.05988 42.0932 4.50877 38.8827 4.50877ZM38.0686 13.6353C36.5292 13.6353 35.1878 12.7334 35.1878 10.6222V10.2045C35.1878 8.37923 36.4415 7.32375 38.1348 7.32375C39.564 7.32375 40.7739 8.29175 40.7739 10.5345C40.7739 12.8212 39.4979 13.6353 38.0686 13.6353ZM24.5652 4.50877C20.8705 4.50877 18.4519 7.27995 18.4519 10.4688C18.4519 13.8117 20.7609 16.4507 24.5652 16.4507C28.2385 16.4507 30.6126 13.6358 30.6126 10.4688C30.6131 7.16955 28.3262 4.50877 24.5652 4.50877ZM24.5431 13.6353C22.6298 13.6353 21.7501 12.1174 21.7501 10.4688C21.7501 8.86365 22.6299 7.32363 24.565 7.32363C26.4569 7.32363 27.3147 8.81961 27.3147 10.4688C27.3146 12.1177 26.457 13.6353 24.5431 13.6353ZM14.7789 16.186H16.2969C16.8688 16.186 17.1764 15.8563 17.1764 15.3067V0.902297C17.1764 0.330274 16.8684 0.0223679 16.2969 0.0223679H14.7789C14.2073 0.0223679 13.8771 0.330517 13.8771 0.902297V15.3073C13.8771 15.8562 14.2073 16.186 14.7789 16.186ZM11.2167 4.77276H10.2048C9.67706 4.77276 9.30315 4.99283 9.19299 5.4769C9.12748 5.76285 9.12748 5.96072 9.10516 6.18103C8.20363 5.16911 6.97163 4.50949 5.34425 4.50949C2.35287 4.50949 0 6.77429 0 10.2492C0 13.658 2.17756 15.8353 5.21225 15.8353C6.77364 15.8353 8.00491 15.2633 8.86252 14.2953V15.1312C8.86252 17.1549 7.65321 18.1879 5.36609 18.1879C4.02442 18.1879 3.07873 17.7709 2.11133 17.2209C1.91297 17.1107 1.7157 17.0223 1.53942 17.0223C1.27507 17.0223 1.05524 17.1548 0.879568 17.4409L0.351586 18.2549C0.219349 18.4525 0.153713 18.629 0.153713 18.8271C0.153713 19.0471 0.285347 19.2666 0.549338 19.4643C2.04484 20.5866 3.76006 21.0251 5.82795 21.0251C9.67669 21.0251 12.0948 18.3863 12.0948 15.0228V5.65293C12.0959 5.08043 11.7875 4.77276 11.2167 4.77276ZM8.86216 10.3811C8.86216 12.1833 7.58673 13.196 5.89371 13.196C4.46408 13.196 3.29796 12.2275 3.29796 10.2046C3.29796 8.09316 4.59583 7.27947 5.98179 7.27947C7.49913 7.27947 8.86204 8.1372 8.86204 10.2046L8.86216 10.3811Z" fill="white"/>
</svg>
