<svg width="117" height="22" viewBox="0 0 117 22" fill="none" xmlns="http://www.w3.org/2000/svg">
<path d="M14.8568 15.1601V6.06405L24.5062 10.6121L14.8568 15.1601ZM36.3659 3.31412C36.1542 2.67165 35.7395 2.08587 35.1632 1.61543C34.5869 1.145 33.8693 0.806425 33.0823 0.633622C30.1856 0 18.571 0 18.571 0C18.571 0 6.95628 0 4.05976 0.633622C3.27276 0.806442 2.55519 1.14502 1.97892 1.61545C1.40264 2.08589 0.987885 2.67166 0.776182 3.31412C0 5.67883 0 10.6121 0 10.6121C0 10.6121 0 15.5456 0.776182 17.9099C0.987864 18.5523 1.40261 19.1381 1.97889 19.6086C2.55517 20.079 3.27275 20.4176 4.05976 20.5904C6.95628 21.2242 18.571 21.2242 18.571 21.2242C18.571 21.2242 30.1856 21.2242 33.0823 20.5904C33.8693 20.4176 34.5869 20.079 35.1632 19.6086C35.7395 19.1382 36.1542 18.5524 36.3659 17.9099C37.1421 15.5454 37.1421 10.6119 37.1421 10.6119C37.1421 10.6119 37.1421 5.67883 36.3659 3.31412ZM58.0286 17.2267C58.232 16.7935 58.334 16.0852 58.334 15.1021V10.9608C58.334 10.0067 58.232 9.30947 58.0286 8.86846C57.825 8.42764 57.4663 8.20714 56.9532 8.20714C56.4572 8.20714 56.107 8.42764 55.9036 8.86846C55.7 9.30947 55.5982 10.0067 55.5982 10.9608V15.1021C55.5982 16.0848 55.6954 16.7933 55.8906 17.2267C56.085 17.6606 56.4391 17.8771 56.9529 17.8771C57.4663 17.8771 57.825 17.6606 58.0286 17.2267ZM53.9119 19.3085C53.1766 18.9042 52.654 18.2753 52.3447 17.4219C52.0347 16.5695 51.8799 15.4345 51.8799 14.0179V12.0881C51.8799 10.6572 52.0567 9.50789 52.4109 8.64066C52.765 7.77343 53.3181 7.14112 54.0711 6.74354C54.8236 6.34614 55.8108 6.14716 57.0327 6.14716C58.2368 6.14716 59.2017 6.3497 59.9279 6.75421C60.6536 7.1589 61.1849 7.79159 61.5215 8.65152C61.8577 9.51163 62.026 10.6572 62.026 12.0882V14.0181C62.026 15.4345 61.8623 16.5732 61.5348 17.4329C61.2069 18.2931 60.6756 18.922 59.9409 19.3192C59.206 19.7168 58.2102 19.9156 56.9532 19.9156C55.6599 19.9156 54.6464 19.713 53.9119 19.3085ZM110.791 8.45535C110.605 8.64347 110.481 8.95064 110.419 9.37686C110.357 9.80327 110.326 10.4502 110.326 11.3174V12.2715H113.008V11.3172C113.008 10.4646 112.973 9.81768 112.902 9.37667C112.831 8.93585 112.703 8.62531 112.517 8.44449C112.331 8.26367 112.043 8.17326 111.654 8.17326C111.264 8.17326 110.977 8.2676 110.791 8.45535ZM110.326 14.0496V14.7217C110.326 15.5748 110.357 16.2144 110.419 16.6406C110.481 17.0672 110.609 17.3781 110.804 17.5731C110.999 17.768 111.299 17.8659 111.707 17.8659C112.256 17.8659 112.632 17.6924 112.836 17.3453C113.039 16.9985 113.15 16.4203 113.168 15.6105L116.329 15.7625C116.346 15.8786 116.355 16.0375 116.355 16.2394C116.355 17.4683 115.944 18.3865 115.12 18.9933C114.297 19.6002 113.132 19.904 111.627 19.904C109.821 19.904 108.555 19.4416 107.829 18.5162C107.103 17.5915 106.74 16.1603 106.74 14.2231V11.9029C106.74 9.90809 107.116 8.45198 107.869 7.53365C108.621 6.61588 109.91 6.1569 111.734 6.1569C112.991 6.1569 113.956 6.34483 114.629 6.7207C115.301 7.09694 115.775 7.68227 116.05 8.47706C116.324 9.27204 116.462 10.3708 116.462 11.7728V14.0496H110.326ZM44.9864 13.8006L40.8162 1.50628H44.4549L45.9156 7.07879C46.2877 8.45254 46.5622 9.62338 46.739 10.5915H46.8454C46.9692 9.8978 47.2439 8.73425 47.6688 7.1005L49.1829 1.50628H52.8216L48.5986 13.8006V19.6988H44.9862L44.9864 13.8006ZM73.8611 6.40735V19.6988H70.9923L70.6736 18.0726H70.594C69.8146 19.3012 68.6459 19.9154 67.0878 19.9154C66.0078 19.9154 65.211 19.6266 64.6973 19.0482C64.1837 18.4703 63.9271 17.5666 63.9271 16.3377V6.40735H67.5925V16.1646C67.5925 16.7576 67.6723 17.1802 67.8316 17.4329C67.991 17.6862 68.2565 17.8124 68.6284 17.8124C68.9472 17.8124 69.2526 17.7332 69.5447 17.5737C69.8369 17.4148 70.0538 17.2128 70.1955 16.967V6.40716L73.8611 6.40735ZM92.6626 6.40735V19.6988H89.7938L89.4748 18.0726H89.3957C88.6156 19.3012 87.4471 19.9154 85.8893 19.9154C84.809 19.9154 84.0122 19.6266 83.4986 19.0482C82.9849 18.4703 82.7286 17.5666 82.7286 16.3377V6.40735H86.3939V16.1646C86.3939 16.7576 86.4735 17.1802 86.6326 17.4329C86.7922 17.6862 87.058 17.8124 87.4297 17.8124C87.7486 17.8124 88.0541 17.7332 88.346 17.5737C88.6383 17.4148 88.855 17.2128 88.997 16.967V6.40716L92.6626 6.40735Z" fill="white"/>
<path d="M83.8212 3.91355H80.1822V19.6987H76.5966V3.91336H72.9578V1.50672H83.8212V3.91355ZM101.434 13.9534C101.434 14.9219 101.385 15.681 101.287 16.23C101.19 16.7797 101.026 17.1698 100.796 17.4008C100.566 17.6322 100.256 17.7479 99.8667 17.7479C99.574 17.7499 99.2857 17.6901 99.0297 17.5743C98.7729 17.4587 98.5652 17.2853 98.4056 17.054V9.50814C98.5294 9.14688 98.742 8.85056 99.043 8.6192C99.3441 8.38821 99.6713 8.27235 100.026 8.27235C100.398 8.27235 100.685 8.39158 100.889 8.62987C101.092 8.86853 101.234 9.26967 101.314 9.83347C101.394 10.3971 101.434 11.1994 101.434 12.2401V13.9534ZM104.794 8.53178C104.572 7.69357 104.213 7.08653 103.718 6.71047C103.222 6.33479 102.54 6.14686 101.673 6.14686C101 6.14686 100.371 6.30222 99.7869 6.61295C99.2107 6.91645 98.7432 7.33917 98.4322 7.83808H98.4053L98.4056 0.834351H94.8732V19.6983H97.9009L98.2728 18.441H98.3524C98.6356 18.8889 99.0605 19.2431 99.6273 19.5033C100.194 19.7635 100.823 19.8936 101.513 19.8936C102.752 19.8936 103.665 19.4273 104.249 18.4951C104.833 17.5625 105.126 16.1066 105.126 14.126V12.0228C105.126 10.5341 105.015 9.37037 104.794 8.53178Z" fill="white"/>
</svg>
