<svg width="100" height="37" viewBox="0 0 100 37" fill="none" xmlns="http://www.w3.org/2000/svg">
<path d="M36.7088 6.65944C36.7588 6.41946 36.5888 6.21948 36.3488 6.21948H29.6188C29.3688 6.21948 29.1388 6.41946 29.0888 6.65944L23.5188 35.2969C23.4688 35.5369 23.6388 35.7368 23.8788 35.7368H30.6088C30.8488 35.7368 31.0888 35.5369 31.1388 35.2969L36.7088 6.65944ZM6.10876 6.21948C5.85876 6.21948 5.62876 6.41946 5.57876 6.65944L0.00875672 35.2969C-0.0412433 35.5369 0.128757 35.7368 0.368757 35.7368H7.09876C7.34876 35.7368 7.57876 35.5369 7.62876 35.2969L12.2988 11.289C12.3488 11.0491 12.5788 10.8491 12.8288 10.8491H14.4188C16.5788 10.8491 18.0388 12.8789 17.6688 15.3887C17.3088 17.8984 15.2588 19.9283 13.0988 19.9283H12.9588C12.7288 19.9283 12.4988 20.1282 12.4488 20.3682L11.7188 24.1179C11.6688 24.3579 11.8388 24.5578 12.0788 24.5578H14.1988C19.4288 24.5578 24.3888 20.4482 25.2688 15.3887C26.1488 10.3291 22.6288 6.21948 17.3988 6.21948H6.10876Z" fill="white"/>
<mask id="mask0_9_18" style="mask-type:luminance" maskUnits="userSpaceOnUse" x="74" y="5" width="26" height="32">
<path d="M74.4988 5.96948H99.9988V36.8167H74.4988V5.96948Z" fill="white"/>
</mask>
<g mask="url(#mask0_9_18)">
<path d="M89.0988 12.1989C86.1588 12.1989 83.0488 16.3986 82.4488 21.5781C81.8488 26.7577 83.7388 30.8973 86.6788 30.8973C89.6188 30.8973 92.0988 27.8176 92.9488 21.7981C93.6788 16.6486 92.0388 12.189 89.0988 12.1989ZM99.7688 21.9381C98.2488 31.7872 92.6188 36.8168 85.6188 36.8168C78.6188 36.8168 73.7488 30.0474 74.7288 21.5681C75.7088 13.0889 82.7588 6.21948 89.7588 6.21948C96.7588 6.21948 101.069 13.5088 99.7688 21.9381Z" fill="white"/>
</g>
<path d="M60.2887 24.5578C60.0487 24.5578 59.9387 24.3779 60.0487 24.1579L64.7787 14.8587C64.8887 14.6387 64.9987 14.6587 65.0087 14.9087L65.6787 24.1079C65.6987 24.3479 65.5087 24.5478 65.2687 24.5478H60.2887V24.5578ZM66.4987 35.2869C66.5187 35.5269 66.7287 35.7268 66.9787 35.7268H73.7087C73.9587 35.7268 74.1287 35.5269 74.0887 35.2869L70.1687 6.66944C70.1387 6.42946 69.9087 6.22948 69.6587 6.22948H64.8187C64.5787 6.22948 64.2787 6.39947 64.1587 6.61945L50.7087 30.7173C50.5887 30.9273 50.2887 31.1073 50.0487 31.1073H45.4887C45.2387 31.1073 45.0787 30.9073 45.1287 30.6673L49.7987 6.65944C49.8487 6.41946 49.6787 6.21948 49.4387 6.21948H42.6987C42.4487 6.21948 42.2187 6.41946 42.1687 6.65944L36.5987 35.2969C36.5487 35.5369 36.7187 35.7368 36.9587 35.7368H53.7187C53.9687 35.7368 54.2587 35.5569 54.3687 35.3369L57.4587 29.2574C57.5687 29.0374 57.8587 28.8575 58.1087 28.8575H65.5887C65.8287 28.8575 66.0487 29.0574 66.0687 29.2974L66.4987 35.2869Z" fill="white"/>
<path d="M60.8087 4.28962H71.2987C72.0487 4.28962 73.7487 3.73967 75.3587 0H64.8687C64.1187 0 62.4087 0.549951 60.8087 4.28962Z" fill="#E61F29"/>
</svg>
