<svg width="100" height="67" viewBox="0 0 100 67" fill="none" xmlns="http://www.w3.org/2000/svg">
<path d="M64.3 66.5255H61.88C61.795 66.5255 61.71 66.4605 61.71 66.3555V57.7655C61.71 56.8055 62.18 56.3205 63.105 56.0655C64.62 55.6455 65.675 55.5455 66.635 55.5455C69.815 55.5455 71.055 57.1755 71.055 59.4455V66.3555C71.055 66.4405 70.99 66.5255 70.885 66.5255H68.495C68.41 66.5255 68.325 66.4605 68.325 66.3555V59.6805C68.325 58.6705 67.89 57.8805 66.475 57.8805C66.02 57.8805 65.55 57.9155 64.575 58.1655C64.51 58.1805 64.455 58.2505 64.455 58.3155V66.3505C64.47 66.4605 64.405 66.5255 64.3 66.5255ZM77.485 57.4805C76.105 57.4805 75.25 58.4205 75.095 59.9355C75.08 60.0355 75.16 60.1205 75.265 60.1205H79.72C79.82 60.1205 79.89 60.0355 79.89 59.9505C79.82 58.5755 79.1 57.4805 77.485 57.4805ZM80.175 66.4605C80.14 66.5105 80.09 66.5255 80.04 66.5255H77.87C74.625 66.5255 72.42 64.7955 72.42 61.1105C72.42 57.2255 74.79 55.4955 77.55 55.4955C80.56 55.4955 82.525 57.1955 82.525 60.8255C82.525 61.6005 82.17 61.9705 81.38 61.9705H75.275C75.175 61.9705 75.105 62.0555 75.105 62.1555C75.305 63.7005 76.485 64.3055 78.065 64.3055H81.295C81.43 64.3055 81.495 64.4555 81.43 64.5555L80.175 66.4605Z" fill="white"/>
<path d="M89.675 66.4405L87.625 63.1305C87.56 63.0305 87.405 63.0305 87.355 63.1305L85.285 66.4405C85.25 66.4905 85.2 66.5255 85.15 66.5255H82.395C82.26 66.5255 82.195 66.3755 82.26 66.2755L85.675 61.1655C85.71 61.1155 85.71 61.0455 85.675 60.9805L82.33 55.9005C82.265 55.8005 82.33 55.6505 82.465 55.6505H85.24C85.29 55.6505 85.34 55.6855 85.375 55.7355L87.36 58.8955C87.425 58.9955 87.58 58.9955 87.645 58.8955L89.53 55.7355C89.565 55.6855 89.615 55.6505 89.665 55.6505H92.42C92.555 55.6505 92.62 55.8005 92.555 55.9005L89.325 60.8755C89.29 60.9255 89.29 60.9955 89.325 61.0605L92.74 66.2905C92.805 66.3905 92.74 66.5405 92.605 66.5405H89.795C89.755 66.5255 89.69 66.4955 89.675 66.4405ZM99.995 66.0705C100.01 66.1555 99.96 66.2405 99.875 66.2555C98.9 66.5055 98.125 66.6405 97.37 66.6405C94.865 66.6405 93.705 65.2805 93.705 62.6205V53.5605C93.705 53.4755 93.755 53.4105 93.84 53.3905L96.195 52.9555C96.295 52.9405 96.38 53.0055 96.38 53.1255V55.4805C96.38 55.5655 96.445 55.6505 96.55 55.6505H99.525C99.61 55.6505 99.695 55.7155 99.695 55.8205V57.5855C99.695 57.6705 99.63 57.7555 99.525 57.7555H96.55C96.465 57.7555 96.38 57.8205 96.38 57.9255V62.8355C96.38 63.8105 96.735 64.5005 97.845 64.5005C98.315 64.5005 98.885 64.3805 99.51 64.2305C99.61 64.2155 99.695 64.2655 99.71 64.3655L99.995 66.0705Z" fill="white"/>
<path d="M80.4769 49.6441C79.9569 49.6441 79.4169 49.5241 78.9319 49.2891C77.1519 48.4341 76.3919 46.2791 77.2669 44.4991L92.2819 13.3591C93.1369 11.5791 95.2919 10.8191 97.0719 11.6941C98.8519 12.5491 99.6119 14.7041 98.7369 16.4841L83.7219 47.6241C83.0819 48.9041 81.8069 49.6441 80.4769 49.6441Z" fill="white"/>
<path d="M80.4769 49.644C79.6519 49.644 78.8269 49.359 78.1569 48.789L28.0519 6.31904C26.5369 5.03904 26.3519 2.76904 27.6319 1.27404C28.9119 -0.240957 31.1819 -0.425957 32.6769 0.854043L82.7819 43.324C84.2969 44.604 84.4819 46.874 83.2019 48.369C82.4919 49.224 81.4869 49.644 80.4769 49.644Z" fill="white"/>
<path d="M3.58696 60.6241C2.22696 60.6241 0.931962 59.8491 0.326962 58.5391C-0.498038 56.7391 0.291962 54.6041 2.09196 53.7791L93.997 11.6591C95.797 10.8341 97.932 11.6241 98.757 13.4241C99.582 15.2241 98.792 17.3591 96.992 18.1841L5.08696 60.2841C4.59696 60.5241 4.09196 60.6241 3.58696 60.6241Z" fill="white"/>
<path d="M3.58702 60.6241C3.04702 60.6241 2.49202 60.5041 1.99202 60.2391C0.227018 59.3491 -0.497982 57.1941 0.397018 55.4291L27.182 1.97908C28.072 0.214078 30.227 -0.510921 31.992 0.384079C33.757 1.27408 34.482 3.42908 33.587 5.19408L6.80202 58.6441C6.16202 59.9041 4.90202 60.6241 3.58702 60.6241Z" fill="white"/>
</svg>
