<svg width="100" height="50" viewBox="0 0 100 50" fill="none" xmlns="http://www.w3.org/2000/svg">
<path d="M10.46 49.884L8.908 49.896L8.444 49.856C8.188 49.836 7.72 49.784 7.4 49.744C7.084 49.704 6.484 49.604 6.068 49.524C5.652 49.44 5.06 49.304 4.748 49.216C4.436 49.132 3.908 48.956 3.572 48.832C3.236 48.708 2.744 48.5 2.472 48.372C2.2 48.244 1.764 48.016 1.496 47.86C1.228 47.708 0.804 47.44 0.556 47.268C0.308 47.096 0.1 46.952 0.1 46.944C0.1 46.936 1.212 45.936 2.572 44.72C3.932 43.504 5.08 42.484 5.12 42.452L5.192 42.396L5.628 42.616C5.868 42.736 6.344 42.944 6.684 43.08C7.024 43.216 7.54 43.396 7.824 43.484C8.108 43.572 8.54 43.68 8.776 43.728L9.208 43.816L9.792 43.868L10.376 43.92L10.744 43.872L11.112 43.824L11.368 43.724L11.624 43.624L11.828 43.444L12.032 43.264L12.112 43.084L12.192 42.904V42.552L12.1 42.364L12.008 42.176L11.852 42.056C11.768 41.992 11.548 41.868 11.368 41.784L11.04 41.632L10.472 41.476L9.904 41.32L8.596 41.052C7.876 40.904 7.108 40.736 6.888 40.68C6.668 40.62 6.168 40.464 5.78 40.332C5.388 40.2 4.852 39.996 4.584 39.884C4.316 39.772 3.888 39.568 3.632 39.432C3.376 39.296 3.004 39.08 2.812 38.952C2.616 38.824 2.304 38.596 2.12 38.448C1.936 38.3 1.66 38.044 1.512 37.884C1.364 37.724 1.164 37.488 1.068 37.36C0.976 37.232 0.816 36.988 0.716 36.816C0.616 36.644 0.464 36.324 0.38 36.108L0.22 35.708L0.124 35.244L0.048 34.8L0.024 34.2L0 33.6L0.052 33.08L0.104 32.556L0.208 32.128C0.264 31.892 0.368 31.548 0.432 31.364C0.496 31.18 0.64 30.852 0.752 30.632C0.86 30.412 1.04 30.092 1.152 29.924C1.264 29.752 1.468 29.472 1.608 29.304C1.748 29.132 2.02 28.844 2.212 28.66C2.404 28.476 2.68 28.232 2.828 28.124C2.976 28.012 3.252 27.816 3.448 27.688L3.804 27.456L4.38 27.176C4.696 27.024 5.128 26.836 5.332 26.76C5.54 26.684 5.884 26.576 6.1 26.512C6.312 26.452 6.732 26.348 7.032 26.288C7.332 26.228 7.804 26.144 8.084 26.108L8.596 26.04L9.776 26.016L10.956 25.992L11.748 26.044C12.184 26.072 12.852 26.136 13.228 26.184L13.916 26.272L14.672 26.424L15.428 26.576L16.036 26.752C16.372 26.848 16.92 27.032 17.252 27.16L17.86 27.392L18.58 27.752L19.3 28.112L19.924 28.524C20.268 28.752 20.544 28.952 20.536 28.968C20.528 28.984 19.4 30.008 18.024 31.248L15.524 33.496L15.472 33.476C15.444 33.464 15.124 33.316 14.756 33.144C14.392 32.976 13.832 32.74 13.512 32.628C13.196 32.512 12.716 32.36 12.448 32.292C12.18 32.224 11.76 32.132 11.516 32.092L11.072 32.02L10.496 32.016L9.92 32.012L9.604 32.108L9.288 32.204L9.076 32.392L8.864 32.58L8.784 32.76L8.704 32.94V33.404L8.752 33.528L8.8 33.652L8.94 33.8C9.016 33.88 9.16 33.992 9.26 34.052C9.356 34.108 9.608 34.216 9.816 34.288C10.024 34.36 10.404 34.472 10.66 34.536C10.916 34.6 11.656 34.772 12.304 34.916L13.484 35.184L14.144 35.388C14.508 35.5 15.084 35.704 15.424 35.84L16.044 36.084L16.604 36.368L17.164 36.652L17.648 36.972L18.132 37.292L18.648 37.804L19.164 38.316L19.384 38.648C19.508 38.832 19.668 39.1 19.74 39.248C19.812 39.396 19.936 39.684 20.008 39.892C20.08 40.1 20.18 40.44 20.224 40.648L20.308 41.024V43.064L20.208 43.564L20.108 44.064L19.948 44.52L19.788 44.976L19.572 45.412L19.356 45.848L19.084 46.244L18.812 46.64L18.412 47.064L18.012 47.488L17.652 47.776C17.452 47.936 17.112 48.176 16.892 48.316C16.672 48.452 16.252 48.68 15.96 48.82L15.428 49.076L14.828 49.276L14.228 49.476L13.744 49.584C13.476 49.644 12.98 49.736 12.636 49.788L12.016 49.884H10.46ZM59.588 49.884L58.324 49.9L57.812 49.836C57.532 49.8 57.132 49.74 56.924 49.704C56.716 49.664 56.316 49.576 56.036 49.508C55.756 49.436 55.296 49.3 55.012 49.204C54.728 49.108 54.312 48.944 54.08 48.844C53.852 48.744 53.456 48.552 53.208 48.42C52.96 48.288 52.52 48.02 52.232 47.832C51.944 47.644 51.552 47.36 51.356 47.204C51.16 47.048 50.776 46.7 50.496 46.432L49.992 45.94L49.628 45.496C49.428 45.252 49.132 44.864 48.976 44.632C48.82 44.4 48.576 44.008 48.436 43.76C48.296 43.512 48.088 43.104 47.98 42.852C47.868 42.6 47.72 42.236 47.648 42.04C47.576 41.844 47.44 41.384 47.344 41.02L47.172 40.356L47.1 39.88C47.06 39.62 47.008 39.092 46.984 38.708L46.936 38.012L46.984 37.256L47.032 36.5L47.12 35.988C47.168 35.708 47.276 35.216 47.36 34.9C47.444 34.584 47.572 34.164 47.644 33.968C47.716 33.772 47.848 33.444 47.94 33.236C48.028 33.028 48.212 32.656 48.344 32.408C48.476 32.16 48.72 31.752 48.888 31.5C49.056 31.248 49.36 30.832 49.564 30.576L49.936 30.112L50.4 29.648L50.864 29.184L51.328 28.812C51.584 28.608 52.012 28.296 52.28 28.12C52.548 27.944 52.952 27.7 53.176 27.576C53.4 27.452 53.72 27.288 53.884 27.212C54.052 27.136 54.384 26.996 54.62 26.9C54.86 26.804 55.28 26.656 55.552 26.576C55.824 26.492 56.248 26.384 56.492 26.328C56.736 26.272 57.196 26.192 57.512 26.144L58.088 26.056L59.108 26.032L60.128 26.008L60.848 26.084L61.568 26.16L62.18 26.288C62.516 26.356 62.972 26.468 63.192 26.528C63.412 26.592 63.82 26.728 64.1 26.828L64.612 27.012L65.368 27.392L66.124 27.772L66.632 28.112C66.912 28.3 67.312 28.588 67.52 28.756C67.728 28.924 68.092 29.248 68.336 29.48L68.776 29.9L69.148 30.344L69.52 30.788L69.92 31.388L70.32 31.988L70.692 32.744L71.064 33.5L71.288 34.176L71.512 34.852L71.644 35.508C71.716 35.868 71.796 36.372 71.824 36.628L71.876 37.092V38.908L71.808 39.44C71.768 39.732 71.708 40.132 71.668 40.328C71.628 40.524 71.532 40.924 71.452 41.216C71.372 41.508 71.232 41.94 71.144 42.168C71.056 42.4 70.844 42.868 70.676 43.212L70.372 43.836L69.976 44.432C69.756 44.76 69.44 45.2 69.276 45.404C69.108 45.612 68.744 46.012 68.464 46.292L67.952 46.804L67.508 47.16C67.264 47.356 66.864 47.648 66.62 47.808C66.376 47.968 65.96 48.22 65.696 48.368C65.428 48.516 65 48.728 64.744 48.844L64.276 49.052L63.568 49.288L62.86 49.524L62.328 49.636C62.036 49.696 61.588 49.78 61.328 49.82L60.864 49.896L59.588 49.884ZM59.416 43.116L59.976 43.12L60.328 43.052C60.524 43.016 60.82 42.94 60.988 42.88C61.156 42.82 61.404 42.72 61.536 42.652C61.672 42.584 61.9 42.448 62.048 42.348C62.196 42.248 62.44 42.048 62.6 41.9L62.884 41.632L63.132 41.296L63.38 40.96L63.564 40.604L63.748 40.248L63.88 39.852C63.952 39.636 64.044 39.3 64.084 39.108L64.156 38.76L64.184 38.288L64.212 37.816L64.16 37.352L64.108 36.888L64 36.48L63.892 36.072L63.724 35.68L63.556 35.288L63.296 34.888L63.036 34.488L62.652 34.112L62.268 33.736L62.004 33.56C61.856 33.464 61.608 33.32 61.448 33.244C61.288 33.168 61 33.052 60.804 32.992L60.448 32.88L60.076 32.824L59.704 32.768L59.168 32.792L58.632 32.816L58.204 32.928L57.776 33.04L57.4 33.22L57.024 33.4L56.676 33.66L56.328 33.92L56.104 34.16C55.98 34.292 55.788 34.52 55.68 34.672C55.572 34.82 55.396 35.104 55.296 35.296L55.112 35.648L54.98 36.044C54.908 36.26 54.816 36.6 54.776 36.792L54.704 37.144L54.676 37.636L54.648 38.128L54.7 38.58L54.752 39.032L54.864 39.448L54.976 39.864L55.128 40.216C55.212 40.408 55.376 40.724 55.492 40.92L55.704 41.272L56.088 41.68L56.472 42.088L56.796 42.312C56.976 42.436 57.208 42.58 57.316 42.636C57.424 42.692 57.644 42.784 57.804 42.848C57.964 42.908 58.264 42.996 58.472 43.04L58.848 43.12L59.416 43.116ZM26.252 49.728H22.548V26.26H29.956V34.38H37.54V26.26H44.724V49.724H37.54V41.604H29.956V49.724H26.252V49.728ZM78.008 49.728H74.136V26.26H81.496V37.396H81.528C81.548 37.396 82.752 35.624 84.208 33.46L86.852 29.524H86.932L89.572 33.464L92.212 37.404L92.224 31.832L92.236 26.26H99.996V49.724L95.908 49.712L91.82 49.7L89.372 45.784C88.024 43.632 86.904 41.848 86.88 41.824L86.836 41.78L84.356 45.752L81.876 49.724H78.008V49.728ZM40.356 23.5C40.236 23.496 39.984 23.488 39.8 23.48C39.616 23.472 39.188 23.448 38.848 23.42C38.508 23.392 37.976 23.336 37.672 23.288C37.368 23.24 36.928 23.164 36.696 23.112C36.464 23.06 36.096 22.968 35.876 22.904C35.656 22.84 35.256 22.704 34.988 22.6C34.72 22.496 34.292 22.308 34.036 22.18C33.78 22.052 33.4 21.836 33.192 21.704C32.984 21.568 32.696 21.368 32.548 21.256C32.4 21.144 32.104 20.884 31.888 20.676C31.672 20.468 31.38 20.156 31.24 19.984C31.1 19.812 30.884 19.52 30.756 19.332C30.628 19.144 30.416 18.784 30.284 18.532C30.152 18.28 29.964 17.872 29.864 17.624C29.764 17.372 29.624 16.964 29.552 16.716C29.48 16.464 29.372 16.012 29.312 15.708C29.252 15.404 29.168 14.884 29.124 14.556L29.048 13.956L29.032 6.98L29.02 0H37.14L37.156 6.488L37.172 12.976L37.248 13.436L37.324 13.896L37.436 14.256L37.548 14.616L37.732 14.972L37.916 15.328L38.252 15.668L38.588 16.008L38.92 16.164L39.252 16.32L39.54 16.4L39.828 16.48H41.204L41.492 16.4L41.78 16.32L42.112 16.16L42.444 16L42.78 15.664L43.116 15.328L43.32 14.908L43.524 14.488L43.596 14.2C43.636 14.04 43.7 13.752 43.736 13.556L43.804 13.2L43.824 6.6L43.844 0H52.14L52.124 6.996L52.108 13.992L52.036 14.524C51.996 14.816 51.924 15.268 51.872 15.528C51.82 15.788 51.712 16.248 51.628 16.548L51.476 17.096L51.272 17.608C51.16 17.888 50.968 18.308 50.844 18.536C50.72 18.764 50.54 19.076 50.44 19.224C50.34 19.372 50.136 19.652 49.984 19.848L49.708 20.204L49.268 20.628L48.828 21.052L48.456 21.328C48.252 21.48 47.896 21.716 47.668 21.848C47.44 21.984 47.068 22.18 46.844 22.284C46.62 22.388 46.248 22.544 46.016 22.632C45.784 22.72 45.376 22.852 45.108 22.924C44.84 22.996 44.372 23.108 44.068 23.168C43.764 23.228 43.248 23.308 42.928 23.348L42.34 23.42L41.464 23.464C40.976 23.492 40.48 23.504 40.356 23.5ZM63.668 22.98H54.44V0.044H61.936V16.5H72.896V22.98H63.668ZM79.616 22.98H75.868V6.52H69.388V0.04H89.84V6.52L86.612 6.532L83.384 6.544L83.372 14.76L83.36 22.976H79.616V22.98ZM96.076 22.98H92.328V0.044H99.824V22.98H96.076ZM4.36 22.756H0.588V0H8.564L11.04 3.968C12.4 6.152 13.528 7.936 13.544 7.94C13.56 7.94 14.688 6.156 16.048 3.972L18.528 0H26.272V22.76H19.04L19.028 17.42L19.016 12.08L16.32 16.02C14.836 18.188 13.604 19.964 13.584 19.964C13.564 19.964 12.336 18.184 10.852 16.004L8.152 12.044L8.14 17.4L8.128 22.756H4.36Z" fill="white"/>
</svg>
