<svg width="100" height="55" viewBox="0 0 100 55" fill="none" xmlns="http://www.w3.org/2000/svg">
<path fill-rule="evenodd" clip-rule="evenodd" d="M64.5213 0H81.8117V17.2904H64.5213V0ZM49.1141 18.4664H100V36.1144H79.4756L62.8924 19.3722L49.1141 18.4664ZM79.8173 37.3857L81.8117 37.4731L82.1693 50.3217L80.9933 38.8319L79.8173 37.3857ZM62.7494 38.967H80.0398C80.2623 44.2828 80.4768 49.5669 81.5416 54.7635L64.2115 54.7397C63.1864 49.9085 63.0513 44.5291 62.7573 38.967H62.7494Z" fill="white"/>
<path fill-rule="evenodd" clip-rule="evenodd" d="M46.0629 19.0067C51.4423 19.6662 56.8217 20.0794 62.1931 20.2622L79.3882 38.0929C68.2798 38.2756 57.1713 37.6161 46.0629 36.1143V19.0067ZM6.46817 21.0647H10.9974V18.9352H4.83925C2.59849 18.9352 -0.0236765 21.2475 0.000161344 23.7981C0.0160533 26.0309 1.32714 28.518 4.37044 29.0027C5.16503 29.1298 5.7292 29.2331 6.47611 29.5192C7.37401 29.8688 7.89844 30.7905 7.83487 31.601C7.76336 32.5387 7.08001 33.4604 5.66563 33.4604H0.508702V35.9475H7.15947C9.51941 35.9475 11.9986 33.7782 12.3641 31.3547C12.6104 29.7178 12.2608 27.4374 11.1881 26.3805C9.75779 24.9582 8.17655 24.9423 6.48406 24.3702C5.80071 24.1398 5.1253 23.4167 5.1253 22.6936C5.1253 21.9864 5.77687 21.0647 6.48406 21.0647H6.46817ZM14.0486 30.0277L14.0724 19.0544L19.0705 19.0782L19.0466 30.727C19.0466 32.3559 20.5484 33.7862 22.2806 33.6431C23.846 33.516 25.0776 32.4671 25.0776 31.0289L25.0696 19.0067L27.5329 18.9829V29.7099C27.5329 33.8338 25.2286 35.4071 22.9163 36.1143C21.7482 36.4719 20.4689 36.4242 19.2929 36.2256C16.3291 35.7329 14.0407 33.0393 14.0407 30.0277H14.0486ZM34.9783 21.0647H39.5075V18.9352H33.3493C31.1086 18.9352 28.4864 21.2475 28.5102 23.7981C28.5261 26.0309 29.8372 28.518 32.8805 29.0027C33.6751 29.1298 34.2393 29.2331 34.9862 29.5192C35.8841 29.8688 36.4085 30.7905 36.345 31.601C36.2734 32.5387 35.5901 33.4604 34.1757 33.4604H29.0188V35.9475H35.6696C38.0295 35.9475 40.5086 33.7782 40.8742 31.3547C41.1205 29.7178 40.7709 27.4374 39.6982 26.3805C38.2679 24.9582 36.6866 24.9423 34.9941 24.3702C34.3108 24.1398 33.6354 23.4167 33.6354 22.6936C33.6354 21.9864 34.287 21.0647 34.9941 21.0647H34.9783Z" fill="white"/>
</svg>
