<svg width="100" height="55" viewBox="0 0 100 55" fill="none" xmlns="http://www.w3.org/2000/svg">
<path d="M45.3975 36.8225C45.4517 36.8308 45.4642 36.8308 45.5184 36.8392C46.4184 36.96 47.306 37.1225 47.981 37.4267C48.6102 37.7059 48.9769 38.0559 49.3144 38.6809C49.8269 39.631 49.8602 40.956 49.3977 41.9644C49.0519 42.7144 48.2977 43.3395 47.606 43.6728C46.8893 44.0228 46.1809 44.1853 45.3684 44.2812C43.9516 44.4353 42.4182 44.1437 41.139 43.527C40.3848 43.1561 39.4598 42.5228 38.9972 41.7061C38.6556 41.106 38.6681 40.3268 39.0806 39.756C39.7431 38.8476 41.164 38.6476 42.2349 38.6851C43.0516 38.7184 44.5183 38.9684 45.2934 39.2434C45.51 39.3226 46.3017 39.631 46.4393 39.7726C46.5351 39.8726 46.5976 40.0143 46.5559 40.1477C46.3809 40.6893 45.0642 40.9727 44.685 41.031C43.6683 41.1852 43.1391 40.8018 41.9849 40.3435C41.6974 40.231 41.314 40.106 41.0223 40.081C40.4973 40.031 39.864 40.1768 39.7639 40.7518C39.7139 41.0477 40.0598 41.3227 40.3265 41.4394C40.9473 41.7061 41.4515 41.8019 42.0599 41.8102C43.8641 41.8394 45.8892 41.5435 47.3643 40.4977C47.5643 40.3518 47.7643 40.1435 47.7685 39.8768C47.7768 39.3393 46.8351 39.0101 46.8351 39.0101C45.8434 38.5976 44.0058 38.3934 43.0599 38.3184C42.0682 38.2309 40.5056 38.1059 40.1306 38.0476C39.7431 37.9934 39.3264 37.9142 38.9889 37.7642C38.6514 37.6142 38.3264 37.2725 38.2264 36.8975C38.0555 36.2183 38.2722 35.3891 38.6514 34.8474C39.6389 33.4307 41.9474 32.8932 43.6683 32.6806C45.3392 32.4723 48.0352 32.4765 49.6769 33.3473C49.9311 33.4849 50.0602 33.6099 50.0061 33.8807C49.8977 34.3891 49.5186 34.7141 49.056 34.8599C48.5685 35.0141 47.5643 35.0766 47.1268 35.1016C45.1517 35.2141 42.7599 35.1558 40.8807 35.6683C40.7348 35.71 40.4765 35.7808 40.3973 35.8725C40.1015 36.1933 40.9432 36.285 41.1265 36.3183C41.1807 36.3308 41.189 36.335 41.2473 36.3391L45.3975 36.8225ZM33.6387 28.0096C33.6387 28.0096 33.9595 27.5262 34.2304 27.1596C34.7221 26.4929 35.6096 25.5678 36.2763 24.997C36.4805 24.822 36.7221 24.6261 36.7221 24.6261C36.7221 24.6261 36.343 24.6636 36.1305 24.7095C35.6221 24.8095 34.8804 25.3011 34.5095 25.622C33.897 26.147 33.222 27.0012 33.5262 27.7596C33.5678 27.8679 33.6387 28.0096 33.6387 28.0096ZM37.0472 28.9221C38.0139 28.8555 38.9222 28.5763 39.7681 28.1096C40.5973 27.6471 41.814 26.7429 41.689 25.6803C41.6515 25.3345 41.4265 25.0761 41.1432 24.9553C40.7723 24.797 40.5807 24.822 40.1098 24.9595C39.7681 25.0595 39.6139 25.122 39.2889 25.3053C38.3389 25.8595 36.993 27.0387 36.2596 27.9804C36.0888 28.2013 35.9179 28.4513 35.7846 28.6221C35.7013 28.7263 35.6346 28.8221 35.6429 28.8513C35.6679 28.9596 36.668 28.9471 37.0472 28.9221ZM34.5804 30.7347C34.4804 30.8389 34.3762 31.0972 34.2637 31.2806C34.2054 31.3806 34.097 31.5056 34.0262 31.5556C33.772 31.7389 33.5595 31.7514 33.3178 31.5348C32.9761 31.2347 32.7803 30.7639 32.7636 30.3097C32.7553 30.1097 32.7886 29.893 32.7511 29.7263C32.6886 29.443 32.4053 29.1555 32.2553 28.8846C32.0761 28.568 31.9303 28.0138 31.9136 27.6554C31.8511 26.5387 32.4386 25.5137 33.2053 24.7011C33.9762 23.8802 34.9804 23.201 36.0763 22.7385C37.1097 22.301 38.6264 22.0052 39.7639 22.401C40.1348 22.526 40.6473 22.8427 40.9098 23.1719C40.964 23.2386 41.0098 23.3136 41.064 23.3511C41.114 23.3844 41.2473 23.3969 41.3515 23.4136C41.714 23.4761 42.2349 23.7511 42.4474 23.9344C42.8766 24.3053 43.1099 24.6553 43.2183 25.1678C43.4349 26.197 42.8433 27.3304 42.1641 28.0179C41.0057 29.2013 39.864 30.0347 38.3806 30.6139C37.7305 30.8681 36.718 31.1056 35.9804 31.0389C35.7513 31.0181 35.5138 30.9597 35.2929 30.9431C35.1804 30.9347 34.7637 30.8264 34.7179 30.7972C34.6637 30.7556 34.5929 30.7181 34.5804 30.7347ZM35.9013 33.0182C35.9471 33.0265 36.0179 33.0473 36.0763 33.0682C36.5971 33.264 36.8097 33.7474 36.9388 34.2724C37.2347 35.4974 37.3597 38.2101 37.4097 39.2726C37.4472 40.0726 37.4638 40.856 37.4972 41.6436C37.5263 42.3102 37.5805 43.1978 37.4388 43.8228C37.3888 44.0478 37.2388 44.3103 37.0222 44.4437C36.7763 44.602 36.2138 44.6145 35.9054 44.5479C35.1471 44.3895 34.8971 43.902 34.7887 43.152C34.5304 41.356 34.6554 37.835 34.8054 36.3516C34.8554 35.86 35.0387 34.2891 35.2971 33.6307C35.3929 33.4057 35.5763 32.9557 35.9013 33.0182ZM12.7752 36.0058C12.7752 36.0058 11.6418 36.085 10.8668 36.1725C9.8751 36.2808 8.01252 36.6017 6.94163 36.985C6.62079 37.1017 5.96659 37.3725 5.90825 37.7059C5.84992 38.0476 6.06243 38.3184 6.29994 38.5976C6.43744 38.7601 7.21248 39.506 7.42916 39.6851C8.3417 40.4477 10.1918 41.6227 11.5543 42.1894C12.021 42.3811 12.7961 42.6603 12.7961 42.6603C12.7961 42.6603 12.7377 40.456 12.7502 38.2851C12.7502 37.1392 12.7752 36.0058 12.7752 36.0058ZM33.522 36.8808C33.5887 37.4725 33.4345 38.5934 33.4095 38.7393C33.3595 39.0809 33.1053 39.8643 33.0636 39.9601C32.8553 40.4393 32.6511 40.8269 32.4345 41.2185C32.0636 41.8852 31.1802 42.9436 30.6594 43.3978C28.7134 45.0812 25.6966 46.0396 23.109 46.3563C21.3548 46.5688 19.338 46.5354 17.4796 46.1938C16.8379 46.0771 15.8879 45.8562 15.8879 45.8562C15.8879 45.8562 15.892 46.2354 15.8587 46.5063C15.842 46.6271 15.7504 46.9521 15.7004 47.0563C15.567 47.3355 15.342 47.4813 15.0212 47.5397C14.6295 47.6105 14.217 47.6355 13.8586 47.4813C13.2669 47.2313 13.0544 46.6813 12.9502 46.0437C12.8669 45.5354 12.7794 44.6479 12.7794 44.6479C12.7794 44.6479 12.3377 44.4395 11.9669 44.2562C10.8335 43.6978 9.75843 43.0228 8.81672 42.3269C8.55421 42.1311 7.43749 41.1935 7.18748 40.9602C6.49578 40.3018 5.87075 39.6476 5.39573 38.8059C5.02488 38.1476 4.92071 37.5684 5.19989 36.8725C5.58741 35.9016 6.97497 35.1724 7.92918 34.7557C8.62921 34.4474 10.8001 33.739 11.7002 33.6057C12.1252 33.5432 12.7877 33.4265 12.8294 33.4015C12.8461 33.389 12.8586 33.3765 12.8711 33.364C12.8877 33.3348 12.9252 32.3765 12.9169 32.0265C12.9086 31.6806 13.1711 29.4138 13.2586 28.9346C13.3044 28.6763 13.5003 27.6763 13.7003 27.4137C13.8294 27.2387 14.0628 27.2512 14.2503 27.3679C15.2837 28.0096 15.6004 30.243 15.6754 31.3764C15.7212 32.0681 15.7462 33.1098 15.7462 33.1098C15.7462 33.1098 16.9338 33.0765 17.6629 33.0973C18.3713 33.114 19.1547 33.2265 19.8881 33.3432C20.8298 33.4932 22.6673 33.8932 23.7216 34.4307C24.5883 34.8724 25.4008 35.6099 25.6633 36.3975C25.9092 37.1183 25.8717 37.6142 25.5008 38.2642C25.0841 38.9976 24.2924 39.5435 23.4882 39.5851C23.2507 39.5976 22.3507 39.481 22.0715 39.2643C21.9631 39.1809 21.9673 39.0268 22.0465 38.9184C22.0756 38.8768 22.4965 38.6559 22.7465 38.5226C22.8715 38.4559 22.9757 38.3809 23.0715 38.2934C23.2757 38.1101 23.4632 37.91 23.4424 37.6767C23.4132 37.3725 23.0924 37.185 22.784 37.0642C21.3464 36.4933 18.4713 36.0183 17.0838 35.935C16.5421 35.9016 15.767 35.8766 15.767 35.8766L15.9295 43.5395C15.9295 43.5395 16.5671 43.6603 17.0713 43.7436C17.3588 43.7895 18.5838 43.8978 18.9088 43.9062C21.384 43.9728 24.1507 43.7478 26.4217 42.6769C27.4259 42.2102 28.3384 41.6269 29.0343 40.8352C29.9468 39.7893 30.426 38.3559 30.301 36.8558C30.1635 35.2224 29.0135 33.2807 28.0926 32.0973C25.6633 28.9763 21.5006 26.4054 17.8421 24.9011C14.1045 23.3636 10.4085 22.4802 6.44161 22.3343C5.42073 22.2968 3.1873 22.3468 2.06225 22.6594C1.89974 22.7052 1.73723 22.7594 1.59139 22.7927C1.47472 22.8219 1.28721 22.901 1.23721 22.9427C1.20804 22.9635 1.17887 22.9969 1.17887 22.9969C1.17887 22.9969 1.24971 23.0344 1.31638 23.0635C1.43722 23.1177 1.93724 23.1469 2.19975 23.1927C2.4331 23.2386 2.67477 23.3594 2.77061 23.5302C2.86228 23.6927 2.87478 23.8219 2.76228 23.9552C2.5081 24.2678 1.54556 24.2136 1.12054 24.1469C0.678851 24.0761 0.132993 23.9428 0.0329881 23.5594C-0.0836839 23.1094 0.128826 22.6677 0.36217 22.2552C0.828857 21.4385 1.49555 21.0135 2.4706 20.7468C3.85816 20.3634 5.60407 20.1009 6.91663 20.0509C9.87927 19.9384 12.6836 20.4551 15.5504 21.3301C17.1921 21.826 19.3422 22.6594 20.9173 23.4177C22.0465 23.9636 23.8257 24.9636 24.8258 25.6178C25.1425 25.8262 26.9842 27.1804 27.2717 27.4221C27.8676 27.9096 28.6509 28.6138 29.2176 29.1763C30.3135 30.2639 31.6761 31.9264 32.3386 33.2473C32.497 33.564 32.622 33.8765 32.8261 34.2432C32.897 34.3682 33.2012 35.1183 33.2512 35.3391C33.3012 35.5558 33.372 35.8683 33.3845 35.8808C33.3928 35.9891 33.5303 36.6308 33.522 36.8808ZM70.757 35.1849C69.3695 35.5058 65.7235 35.6808 65.7235 35.6808L65.2651 37.1225C65.2651 37.1225 67.086 36.9683 68.4152 37.1058C68.4152 37.1058 68.8444 37.0558 68.8944 37.5934C68.9111 38.0934 68.8528 38.6309 68.8528 38.6309C68.8528 38.6309 68.8236 38.9559 68.3652 39.0393C67.8652 39.1226 64.4359 39.2559 64.4359 39.2559L63.8817 41.1352C63.8817 41.1352 63.6734 41.5686 64.1359 41.4435C64.5651 41.3269 68.1569 40.656 68.6278 40.7518C69.1278 40.8769 69.6861 41.5435 69.5236 42.1561C69.332 42.9103 65.7485 45.1979 63.565 45.0395C63.565 45.0395 62.4191 45.1145 61.4483 43.5645C60.5441 42.0894 61.7899 39.2934 61.7899 39.2934C61.7899 39.2934 61.2191 37.9892 61.6316 37.5475C61.6316 37.5475 61.8774 37.3225 62.5941 37.2725L63.4734 35.4558C63.4734 35.4558 62.4733 35.5266 61.8774 34.7891C61.3233 34.089 61.2774 33.7682 61.7024 33.5765C62.1566 33.3515 66.3277 32.5931 69.1944 32.689C69.1944 32.689 70.1903 32.5931 71.057 34.3224C71.0487 34.3182 71.4654 35.0183 70.757 35.1849ZM59.9649 42.1769C59.5982 43.0436 58.6273 43.9645 57.4189 43.3895C56.2272 42.8144 54.3313 38.9309 54.3313 38.9309C54.3313 38.9309 53.6104 37.485 53.4729 37.5225C53.4729 37.5225 53.3187 37.2392 53.2229 38.8226C53.1229 40.3977 53.2437 43.4686 52.6145 43.952C52.0187 44.4353 51.2978 44.2437 50.9228 43.677C50.5811 43.1186 50.4436 41.7936 50.6269 39.4643C50.8436 37.1308 51.3853 34.6474 52.0812 33.8765C52.7729 33.1098 53.3271 33.6682 53.5437 33.8682C53.5437 33.8682 54.4688 34.7057 55.9938 37.1684L56.2647 37.6225C56.2647 37.6225 57.6523 39.9476 57.7939 39.9435C57.7939 39.9435 57.9064 40.0518 58.0064 39.9726C58.1523 39.931 58.0939 39.1851 58.0939 39.1851C58.0939 39.1851 57.8064 36.6517 56.5397 32.3598C56.5397 32.3598 56.348 31.8264 56.4772 31.3223C56.6064 30.8139 57.1147 31.0514 57.1147 31.0514C57.1147 31.0514 59.0732 32.039 60.0274 35.2266C60.9732 38.4267 60.3399 41.306 59.9649 42.1769ZM81.0616 40.2685C80.1699 41.8269 77.649 45.0854 74.303 44.3145C73.1988 46.9938 72.2696 49.7064 71.7362 53.7649C71.7362 53.7649 71.6196 54.5525 70.9654 54.2816C70.3153 54.0524 69.2444 52.9732 69.0278 51.4815C68.7944 49.5189 69.6695 46.2021 71.4529 42.3978C70.932 41.5519 70.5778 40.3435 70.882 38.6184C70.882 38.6184 71.332 35.4224 74.5405 32.539C74.5405 32.539 74.9239 32.2056 75.1489 32.3098C75.3947 32.414 75.2822 33.4515 75.0864 33.9599C74.8822 34.4641 73.453 36.9392 73.453 36.9392C73.453 36.9392 72.5613 38.6101 72.8113 39.931C74.4947 37.3392 78.324 32.1181 80.6991 33.764C81.495 34.3349 81.8659 35.5766 81.8659 36.9142C81.8659 38.0809 81.5867 39.3309 81.0616 40.2685ZM80.3699 36.1641C80.3699 36.1641 80.2366 35.1349 79.2324 36.2683C78.3657 37.2267 76.8031 39.0184 75.5489 41.456C76.8698 41.306 78.1407 40.5935 78.524 40.2268C79.1449 39.6726 80.6033 38.1684 80.3699 36.1641ZM99.5 35.9308H93.3664C93.2455 33.8474 92.9913 31.8139 92.5955 29.7222C92.5538 29.5055 92.3663 29.3472 92.1455 29.3472H90.7329C90.6079 29.3472 90.4912 29.4013 90.4121 29.4972C90.3329 29.5972 90.2996 29.718 90.3246 29.843C90.7246 31.8681 90.9829 33.8599 91.1079 35.9308H85.2077C84.9327 35.9308 84.7076 36.1516 84.7076 36.4266V37.7017C84.7076 37.9767 84.9327 38.2017 85.2077 38.2017H91.1954C91.1996 38.5184 91.2038 38.7976 91.2038 39.0643C91.2038 40.9019 91.1246 42.4186 90.9371 44.127C90.9204 44.2603 90.9663 44.3895 91.0538 44.4895C91.1413 44.5854 91.2663 44.6437 91.3954 44.6437H92.708C92.9622 44.6437 93.1747 44.452 93.2039 44.1978C93.383 42.4769 93.458 40.9435 93.458 39.0684C93.458 38.8059 93.4539 38.5226 93.4497 38.2059H99.5C99.775 38.2059 100 37.9809 100 37.7059V36.4308C100 36.1558 99.775 35.9308 99.5 35.9308ZM17.4671 18.8384C17.3796 18.9675 17.3588 19.1259 17.4088 19.2717C17.4629 19.4217 17.5754 19.5342 17.7213 19.5842L18.8213 19.9551C18.888 19.9759 18.9547 19.9884 19.0172 19.9884C19.2214 19.9884 19.413 19.8884 19.5255 19.7176C23.1299 14.4257 28.0051 10.0171 33.6262 6.97532C39.4306 3.83351 46.0059 2.17093 52.6479 2.17093C60.6691 2.17093 68.4027 4.53771 75.0239 9.01291C81.4825 13.3798 86.4994 19.4675 89.5287 26.622C89.6204 26.8345 89.8287 26.9762 90.062 26.9762H91.3746C91.5246 26.9762 91.6663 26.9012 91.7538 26.772C91.8413 26.647 91.858 26.4845 91.7996 26.3429C88.6745 18.6467 83.3868 12.088 76.5114 7.37533C69.4736 2.55012 61.2191 0 52.6479 0C38.4722 0 25.3216 7.04198 17.4671 18.8384Z" fill="white"/>
</svg>
