<svg width="100" height="71" viewBox="0 0 100 71" fill="none" xmlns="http://www.w3.org/2000/svg">
<path d="M17.2153 41.8847L14.8242 47.6793C14.8242 47.6793 18.5936 48.6919 22.0254 48.1575C25.4572 47.6231 30.5486 43.6006 30.9987 39.578C31.4488 35.5554 28.9733 33.3614 27.7357 31.8424C26.498 30.3234 26.695 28.9731 28.2702 28.1292C29.8455 27.2853 32.3489 27.426 33.9242 30.2108L35.7525 25.654C35.7525 25.654 30.9986 23.4318 25.9635 25.8509C20.9284 28.27 20.9283 32.9958 21.8565 34.8805C22.7848 36.7651 25.5133 37.4684 25.5978 39.7187C25.6822 41.969 24.1913 43.7693 21.5753 43.7412C18.9593 43.7131 18.5373 43.2911 17.2153 41.8847ZM32.5949 49.9157C32.5949 49.9157 34.0085 46.4558 35.4642 42.4262C38.5865 33.8819 39.2617 33.2489 40.3798 33.2067C41.4979 33.1646 41.3081 34.346 41.2659 35.443C41.1182 39.0295 36.2237 44.2616 35.3376 44.9578C34.3618 45.6223 34.6625 45.6065 34.9087 45.5696C42.9819 44.36 45.2885 37.6652 45.4853 36.4838C46.3011 31.1392 43.235 30.8298 41.6316 30.9141C40.0282 30.9985 35.0212 31.6455 35.0212 31.6455L27.7356 50.5767L32.5949 49.9157ZM48.1575 43.6568C48.1575 43.6568 51.3923 35.4149 51.6455 34.7116C53.3614 32.0393 55.9775 32.6863 55.9775 32.6863L57.6653 28.3824C57.6653 28.3824 56.8495 28.2137 55.1055 28.72C53.3614 29.2263 51.7299 31.4204 51.7299 31.4204L52.4051 29.3107L48.9451 29.6764L43.2349 44.2474L48.1575 43.6568ZM58.8748 28.2982L53.1927 42.8973L58.1997 42.3629L63.8818 27.7074L58.8748 28.2982ZM67.9325 24.7258L67.0043 27.3699L64.8946 27.4824L63.6006 30.9986L65.6822 30.858L61.2659 41.8847L66.1604 41.2659L70.5205 30.0703L72.8833 29.7609L74.1491 26.3572L71.7863 26.6104L73.5022 22.3066L67.9325 24.7258ZM82.5598 34.6273C82.3479 34.9186 79.4655 38.1434 77.2152 37.4965C74.9649 36.8496 75.8088 34.346 76.5401 32.8551C77.2715 31.3643 79.3812 27.1448 80.7876 27.4262C81.3783 27.6794 81.4345 28.6639 79.2405 31.533C78.8185 32.1518 78.3122 32.6864 76.7088 33.699C76.5401 34.0366 76.5682 34.4304 79.8311 33.3052C83.0941 32.18 84.4163 29.7609 84.5006 27.8762C84.585 25.9916 81.9691 25.3727 80.3376 25.7384C78.706 26.1041 74.0366 27.3699 71.2799 33.8397C70.7173 34.9931 69.564 39.9719 74.4866 40.422C76.2025 40.5626 80.1687 39.6343 82.9816 35.2743C83.0943 34.9648 82.7849 34.3179 82.5598 34.6273ZM65.2954 21.7933C64.4739 20.9719 62.7383 21.3756 61.4187 22.6952C60.0991 24.0148 59.6954 25.7504 60.5168 26.5718C61.3383 27.3933 63.0739 26.9895 64.3935 25.67C65.7131 24.3503 66.1168 22.6147 65.2954 21.7933ZM90.4641 53.5865C46.9199 30.1266 21.2659 70.6611 21.2659 70.6611C16.2025 43.0943 0 46.9761 0 46.9761C26.8355 37.7497 16.6245 9.78898 16.6245 9.78898C51.2236 40.6751 82.6724 0 82.6724 0C82.6724 0 77.4684 16.4839 83.685 19.5781C89.9016 22.6723 100 19.0718 100 19.0718C76.7089 34.0084 90.4641 53.5865 90.4641 53.5865ZM92.7146 22.8974C92.7146 22.8974 74.5992 26.5542 78.7061 8.2138C78.7061 8.2138 52.8693 38.4107 19.6344 13.671C19.6344 13.671 27.0043 37.0044 2.70051 46.2448C2.70051 46.2448 19.6204 45.5275 22.9115 62.4474C22.9115 62.4474 48.5514 32.5176 87.9888 50.5205C87.9888 50.5204 78.4248 35.1618 92.7146 22.8974ZM81.664 41.3714C81.664 40.7331 81.1447 40.2137 80.5063 40.2137C79.8679 40.2137 79.3486 40.7331 79.3486 41.3714C79.3486 42.0096 79.868 42.529 80.5063 42.529C81.1446 42.529 81.664 42.0096 81.664 41.3714ZM81.5005 41.3714C81.5005 41.9196 81.0546 42.3655 80.5063 42.3655C79.958 42.3655 79.5121 41.9196 79.5121 41.3714C79.5121 40.8232 79.9581 40.3772 80.5063 40.3772C81.0545 40.3772 81.5005 40.8232 81.5005 41.3714ZM81.1677 41.0413C81.1148 41.3057 80.9386 41.3937 80.745 41.4112L80.9741 42.0275H80.6217L80.5867 41.9398L80.4105 41.4291H80.2695L80.1461 42.0275H79.847L79.9699 41.4112L80.1461 40.6013H80.6743C81.0441 40.6013 81.2382 40.7068 81.1677 41.0413ZM80.6041 40.8475H80.3932L80.3224 41.1999H80.5867C80.7277 41.1999 80.8158 41.1647 80.8505 41.0063C80.8684 40.8654 80.7275 40.8475 80.6041 40.8475Z" fill="white"/>
</svg>
