<svg width="350" height="90" viewBox="0 0 350 90" fill="none" xmlns="http://www.w3.org/2000/svg">
<path d="M57.1041 53.2835C56.2459 53.2835 55.5103 52.9282 54.8973 52.2177C54.2843 51.4697 53.9777 50.5721 53.9777 49.5249C53.9777 48.4778 54.2689 47.5989 54.8513 46.8883C55.4643 46.1777 56.2153 45.8225 57.1041 45.8225C57.9317 45.8225 58.6367 46.1777 59.2191 46.8883C59.8014 47.5989 60.0926 48.4778 60.0926 49.5249C60.0926 50.5721 59.8014 51.4697 59.2191 52.2177C58.6367 52.9282 57.9317 53.2835 57.1041 53.2835ZM52.2306 88.8499V87.7279L55.449 87.1669V61.53L52.2306 60.969V59.847H60.0466V87.1669L63.265 87.7279V88.8499H52.2306Z" fill="#DC2C2C"/>
<path d="M66.0264 88.8499V87.5035L80.2791 61.1934H71.1758L67.4057 69.8887H66.2563L66.854 59.791H85.6584V61.1934L71.4057 87.5035H81.2447L85.2906 78.1351H86.486L85.6124 88.8499H66.0264Z" fill="#DC2C2C"/>
<path d="M89.7779 88.8499V87.5035L104.031 61.1934H94.9273L91.1572 69.8887H90.0078L90.6055 59.791H109.41V61.1934L95.1572 87.5035H104.996L109.042 78.1351H110.237L109.364 88.8499H89.7779Z" fill="#DC2C2C"/>
<path d="M120.564 89.4109C118.602 89.4109 116.993 88.7938 115.736 87.5596C114.48 86.2881 113.851 84.4181 113.851 81.9498C113.851 78.4343 115.062 75.9473 117.483 74.4887C119.905 72.9928 122.709 72.2448 125.897 72.2448H128.978V67.9252C128.978 65.9805 128.794 64.4845 128.426 63.4373C128.089 62.3528 127.552 61.6048 126.817 61.1934C126.081 60.7446 125.085 60.5202 123.828 60.5202C122.388 60.5202 121.315 60.8755 120.61 61.5861C119.905 62.2593 119.552 63.1755 119.552 64.3349C119.552 65.4195 119.981 66.1301 120.84 66.4667C120.84 67.4016 120.549 68.2244 119.966 68.935C119.384 69.6456 118.694 70.0008 117.897 70.0008C117.039 70.0008 116.349 69.7204 115.828 69.1594C115.307 68.561 115.047 67.6634 115.047 66.4667C115.047 64.2975 115.936 62.5585 117.713 61.2495C119.491 59.9405 121.713 59.2861 124.38 59.2861C130.51 59.2861 133.575 62.5398 133.575 69.0472V85.0913C133.575 85.9141 133.713 86.5499 133.989 86.9986C134.296 87.41 134.725 87.6157 135.276 87.6157C135.797 87.6157 136.211 87.41 136.518 86.9986C136.824 86.5499 136.977 85.9515 136.977 85.2035H137.943C137.943 86.5125 137.591 87.5409 136.886 88.2889C136.211 89.0369 135.261 89.4109 134.035 89.4109C132.625 89.4109 131.43 88.9247 130.449 87.9523C129.499 86.9425 129.008 85.3905 128.978 83.2962C128.242 85.2035 127.108 86.6995 125.575 87.784C124.073 88.8686 122.403 89.4109 120.564 89.4109ZM123.093 86.9426C123.92 86.9426 124.763 86.6434 125.621 86.045C126.51 85.4466 127.261 84.5864 127.874 83.4645C128.487 82.3051 128.855 80.9213 128.978 79.3132V73.479H125.897C123.384 73.479 121.499 74.1708 120.242 75.5546C119.016 76.9009 118.403 78.8083 118.403 81.2766C118.403 83.3336 118.801 84.7921 119.598 85.6523C120.395 86.5125 121.56 86.9426 123.093 86.9426Z" fill="#DC2C2C"/>
<path d="M139.064 87.7279L142.282 87.1669V61.4739L139.064 60.9129V59.791H146.88V64.1105C148.811 60.8942 150.987 59.2861 153.409 59.2861C154.573 59.2861 155.6 59.6601 156.489 60.408C157.378 61.1186 157.822 62.1471 157.822 63.4934C157.822 64.4658 157.562 65.2886 157.041 65.9618C156.52 66.5975 155.83 66.9154 154.972 66.9154C153.991 66.9154 153.194 66.448 152.581 65.513C152.918 64.9894 153.087 64.4284 153.087 63.83C153.087 63.1942 152.903 62.6894 152.535 62.3154C152.198 61.904 151.738 61.6983 151.156 61.6983C150.512 61.6983 149.853 62.0723 149.179 62.8203C148.505 63.5308 147.738 64.6528 146.88 66.1862V87.1669L150.558 87.7279V88.8499H139.064V87.7279Z" fill="#DC2C2C"/>
<path d="M164.323 53.2835C163.464 53.2835 162.729 52.9282 162.116 52.2177C161.503 51.4697 161.196 50.5721 161.196 49.5249C161.196 48.4778 161.488 47.5989 162.07 46.8883C162.683 46.1777 163.434 45.8225 164.323 45.8225C165.15 45.8225 165.855 46.1777 166.438 46.8883C167.02 47.5989 167.311 48.4778 167.311 49.5249C167.311 50.5721 167.02 51.4697 166.438 52.2177C165.855 52.9282 165.15 53.2835 164.323 53.2835ZM159.449 88.8499V87.7279L162.668 87.1669V61.53L159.449 60.969V59.847H167.265V87.1669L170.484 87.7279V88.8499H159.449Z" fill="#DC2C2C"/>
<path d="M180.279 89.4109C178.318 89.4109 176.709 88.7938 175.452 87.5596C174.195 86.2881 173.567 84.4181 173.567 81.9498C173.567 78.4343 174.778 75.9473 177.199 74.4887C179.62 72.9928 182.425 72.2448 185.613 72.2448H188.693V67.9252C188.693 65.9805 188.509 64.4845 188.141 63.4373C187.804 62.3528 187.268 61.6048 186.532 61.1934C185.797 60.7446 184.8 60.5202 183.544 60.5202C182.103 60.5202 181.03 60.8755 180.325 61.5861C179.62 62.2593 179.268 63.1755 179.268 64.3349C179.268 65.4195 179.697 66.1301 180.555 66.4667C180.555 67.4016 180.264 68.2244 179.682 68.935C179.099 69.6456 178.41 70.0008 177.613 70.0008C176.755 70.0008 176.065 69.7204 175.544 69.1594C175.023 68.561 174.762 67.6634 174.762 66.4667C174.762 64.2975 175.651 62.5585 177.429 61.2495C179.207 59.9405 181.429 59.2861 184.095 59.2861C190.226 59.2861 193.291 62.5398 193.291 69.0472V85.0913C193.291 85.9141 193.429 86.5499 193.705 86.9986C194.011 87.41 194.44 87.6157 194.992 87.6157C195.513 87.6157 195.927 87.41 196.233 86.9986C196.54 86.5499 196.693 85.9515 196.693 85.2035H197.659C197.659 86.5125 197.306 87.5409 196.601 88.2889C195.927 89.0369 194.977 89.4109 193.751 89.4109C192.341 89.4109 191.145 88.9247 190.164 87.9523C189.214 86.9425 188.724 85.3905 188.693 83.2962C187.958 85.2035 186.823 86.6995 185.291 87.784C183.789 88.8686 182.118 89.4109 180.279 89.4109ZM182.808 86.9426C183.636 86.9426 184.479 86.6434 185.337 86.045C186.226 85.4466 186.977 84.5864 187.59 83.4645C188.203 82.3051 188.571 80.9213 188.693 79.3132V73.479H185.613C183.099 73.479 181.214 74.1708 179.958 75.5546C178.732 76.9009 178.119 78.8083 178.119 81.2766C178.119 83.3336 178.517 84.7921 179.314 85.6523C180.111 86.5125 181.276 86.9426 182.808 86.9426Z" fill="#DC2C2C"/>
<path d="M221.294 68.021H223.438V83.4611C223.438 84.8392 223.23 86.0099 222.815 86.9731C222.4 87.9364 221.816 88.6676 221.061 89.1668C220.306 89.666 219.415 89.9156 218.39 89.9156C217.422 89.9156 216.56 89.7012 215.805 89.2723C215.05 88.8364 214.457 88.2176 214.025 87.4161C213.593 86.6146 213.376 85.6618 213.376 84.558H215.485C215.485 85.1697 215.609 85.704 215.857 86.161C216.111 86.611 216.456 86.9626 216.894 87.2157C217.332 87.4688 217.831 87.5954 218.39 87.5954C219.006 87.5954 219.531 87.4372 219.963 87.1208C220.395 86.8044 220.724 86.3403 220.948 85.7286C221.179 85.1099 221.294 84.3541 221.294 83.4611V68.021Z" fill="#DC2C2C"/>
<path d="M228.46 89.6203H226.212L232.712 68.021H234.925L241.425 89.6203H239.178L233.888 71.438H233.749L228.46 89.6203ZM229.289 81.1831H238.348V83.5033H229.289V81.1831Z" fill="#DC2C2C"/>
<path d="M257.595 74.7708H255.452C255.325 74.0184 255.103 73.3575 254.786 72.788C254.475 72.2185 254.094 71.7404 253.645 71.3537C253.201 70.9599 252.709 70.6646 252.167 70.4678C251.625 70.2709 251.061 70.1725 250.473 70.1725C249.401 70.1725 248.43 70.5029 247.56 71.1638C246.696 71.8248 246.007 72.7986 245.494 74.0852C244.987 75.3719 244.733 76.9504 244.733 78.8206C244.733 80.6909 244.987 82.2694 245.494 83.556C246.007 84.8427 246.696 85.8165 247.56 86.4774C248.43 87.1384 249.401 87.4688 250.473 87.4688C251.061 87.4688 251.625 87.3704 252.167 87.1735C252.709 86.9766 253.201 86.6849 253.645 86.2982C254.094 85.9044 254.475 85.4228 254.786 84.8533C255.103 84.2767 255.325 83.6158 255.452 82.8705H257.595C257.434 83.9744 257.14 84.9622 256.713 85.8341C256.287 86.7059 255.757 87.4477 255.123 88.0594C254.489 88.6641 253.778 89.1246 252.988 89.441C252.204 89.7574 251.366 89.9156 250.473 89.9156C248.963 89.9156 247.62 89.4656 246.445 88.5657C245.269 87.6657 244.344 86.386 243.67 84.7267C242.996 83.0674 242.659 81.0987 242.659 78.8206C242.659 76.5426 242.996 74.5739 243.67 72.9146C244.344 71.2552 245.269 69.9756 246.445 69.0756C247.62 68.1756 248.963 67.7256 250.473 67.7256C251.366 67.7256 252.204 67.8839 252.988 68.2002C253.778 68.5166 254.489 68.9807 255.123 69.5924C255.757 70.1971 256.287 70.9353 256.713 71.8072C257.14 72.672 257.434 73.6599 257.595 74.7708Z" fill="#DC2C2C"/>
<path d="M263.203 68.021V89.6203H261.059V68.021H263.203Z" fill="#DC2C2C"/>
<path d="M281.538 68.021V89.6203H279.464L269.817 72.6614H269.644V89.6203H267.501V68.021H269.575L279.256 85.022H279.429V68.021H281.538Z" fill="#DC2C2C"/>
<path d="M284.859 70.3412V68.021H298.136V70.3412H292.57V89.6203H290.426V70.3412H284.859Z" fill="#DC2C2C"/>
<path d="M301.444 89.6203V68.021H303.588V77.6394H313.027V68.021H315.17V89.6203H313.027V79.9597H303.588V89.6203H301.444Z" fill="#DC2C2C"/>
<path d="M334.398 78.8206C334.398 81.0987 334.061 83.0674 333.387 84.7267C332.713 86.386 331.788 87.6657 330.612 88.5657C329.437 89.4656 328.094 89.9156 326.584 89.9156C325.075 89.9156 323.732 89.4656 322.556 88.5657C321.381 87.6657 320.456 86.386 319.782 84.7267C319.108 83.0674 318.771 81.0987 318.771 78.8206C318.771 76.5426 319.108 74.5739 319.782 72.9146C320.456 71.2552 321.381 69.9756 322.556 69.0756C323.732 68.1756 325.075 67.7256 326.584 67.7256C328.094 67.7256 329.437 68.1756 330.612 69.0756C331.788 69.9756 332.713 71.2552 333.387 72.9146C334.061 74.5739 334.398 76.5426 334.398 78.8206ZM332.324 78.8206C332.324 76.9504 332.067 75.3719 331.555 74.0852C331.047 72.7986 330.359 71.8248 329.489 71.1638C328.624 70.5029 327.656 70.1725 326.584 70.1725C325.513 70.1725 324.542 70.5029 323.672 71.1638C322.807 71.8248 322.119 72.7986 321.606 74.0852C321.099 75.3719 320.845 76.9504 320.845 78.8206C320.845 80.6909 321.099 82.2694 321.606 83.556C322.119 84.8427 322.807 85.8165 323.672 86.4774C324.542 87.1384 325.513 87.4688 326.584 87.4688C327.656 87.4688 328.624 87.1384 329.489 86.4774C330.359 85.8165 331.047 84.8427 331.555 83.556C332.067 82.2694 332.324 80.6909 332.324 78.8206Z" fill="#DC2C2C"/>
<path d="M347.684 73.4208C347.58 72.3521 347.159 71.5224 346.422 70.9318C345.684 70.3412 344.779 70.0459 343.707 70.0459C342.924 70.0459 342.238 70.2006 341.65 70.5099C341.068 70.8193 340.613 71.2447 340.285 71.7861C339.962 72.3275 339.801 72.9427 339.801 73.6317C339.801 74.2083 339.913 74.704 340.138 75.1188C340.368 75.5266 340.662 75.8676 341.019 76.1418C341.377 76.409 341.751 76.6305 342.143 76.8062C342.535 76.975 342.895 77.1121 343.223 77.2176L345.021 77.8082C345.482 77.9558 345.995 78.1597 346.56 78.4199C347.13 78.68 347.675 79.0351 348.194 79.4851C348.718 79.928 349.15 80.4975 349.49 81.1936C349.83 81.8897 350 82.744 350 83.7564C350 84.9236 349.749 85.9782 349.248 86.9204C348.753 87.8626 348.026 88.6114 347.07 89.1668C346.119 89.7223 344.964 90 343.604 90C342.336 90 341.238 89.7504 340.31 89.2512C339.388 88.752 338.662 88.0559 338.132 87.163C337.608 86.27 337.311 85.233 337.242 84.0517H339.455C339.512 84.8673 339.737 85.5423 340.129 86.0767C340.527 86.604 341.028 86.9977 341.633 87.2579C342.244 87.511 342.901 87.6376 343.604 87.6376C344.422 87.6376 345.157 87.4759 345.808 87.1524C346.459 86.822 346.975 86.3649 347.355 85.7814C347.735 85.1907 347.926 84.5017 347.926 83.7143C347.926 82.9971 347.761 82.4135 347.433 81.9635C347.104 81.5135 346.672 81.1479 346.136 80.8667C345.6 80.5854 345.021 80.3393 344.399 80.1284L342.221 79.369C340.838 78.8839 339.743 78.1914 338.936 77.2914C338.129 76.3914 337.726 75.2137 337.726 73.7583C337.726 72.5489 337.994 71.4943 338.53 70.5943C339.072 69.6873 339.798 68.9842 340.708 68.485C341.624 67.9788 342.647 67.7256 343.777 67.7256C344.918 67.7256 345.932 67.9752 346.819 68.4744C347.707 68.9666 348.41 69.6416 348.928 70.4994C349.453 71.3572 349.729 72.331 349.758 73.4208H347.684Z" fill="#DC2C2C"/>
<path d="M9.53336 34.649L9.43194 13.6121C9.43194 11.3847 8.85723 9.19848 7.70782 7.05354C6.55841 4.8261 4.66526 3.71239 2.02837 3.71239C0.676125 3.71239 0 3.17616 0 2.10369C0 0.783727 0.777544 0.123745 2.33263 0.123745L6.08512 0L12.1702 0.371242L28.9043 0C35.2599 0 40.7365 1.97994 45.3342 5.93982C49.9318 9.81721 52.2306 15.427 52.2306 22.7693C52.2306 26.8117 51.6221 30.4416 50.4051 33.659C49.1881 36.7939 47.7006 39.2688 45.9427 41.0838C44.2524 42.8987 42.3254 44.4249 40.1618 45.6624C36.7136 47.5599 33.6372 48.5086 30.9327 48.5086C28.2282 48.5086 25.7604 48.2198 23.5291 47.6424C21.2979 46.9824 20.1823 46.3224 20.1823 45.6624C20.1823 44.4249 20.6218 43.8062 21.5008 43.8062C21.8388 43.8062 22.515 43.9712 23.5291 44.3012C24.6109 44.6312 25.7942 44.7962 27.0788 44.7962C28.3634 44.7962 29.8847 44.5487 31.6426 44.0537C33.4006 43.4762 35.2261 42.61 37.1192 41.455C39.0124 40.2176 40.5675 38.4026 41.7845 36.0102C43.0015 33.5353 43.61 30.6891 43.61 27.4717C43.61 21.9444 41.7845 16.8295 38.1334 12.1271C34.4824 7.34229 29.4452 4.94986 23.022 4.94986C20.9261 4.94986 19.5062 5.73358 18.7625 7.30104C18.0187 8.78599 17.6469 12.2096 17.6469 17.572L17.444 68.6792C17.444 78.249 19.7428 83.3638 24.3405 84.0238C25.4899 84.1888 26.4365 84.2713 27.1802 84.2713C29.0734 84.1063 30.0199 84.9313 30.0199 86.7462C30.0199 88.1487 29.2424 88.8499 27.6873 88.8499L13.1844 88.2312L3.75249 88.7261C1.65651 88.7261 0.608512 88.2724 0.608512 87.3649C0.608512 85.9625 0.980381 85.0962 1.72412 84.7663C2.06218 84.6013 2.29882 84.4775 2.43405 84.395C2.56927 84.3125 2.87353 84.23 3.34682 84.1475C3.88772 83.9825 4.22578 83.8588 4.361 83.7763C4.56384 83.6938 4.80048 83.6526 5.07093 83.6526C5.34138 83.5701 5.51042 83.5288 5.57803 83.5288C5.71325 83.4463 5.88228 83.3226 6.08512 83.1576C6.35557 82.9101 6.55841 82.6213 6.69363 82.2913C6.82886 81.8788 6.99789 81.3839 7.20073 80.8064C7.47118 80.1464 7.77543 79.1977 8.1135 77.9602C8.51917 76.6403 8.85723 70.5767 9.12768 59.7695C9.39813 48.9623 9.53336 40.5888 9.53336 34.649Z" fill="#DC2C2C"/>
</svg>
